<?xml version="1.0" encoding="UTF-8"?>
<!DOCTYPE svg PUBLIC "-//W3C//DTD SVG 1.1//EN" "http://www.w3.org/Graphics/SVG/1.1/DTD/svg11.dtd">
<svg version="1.1" xmlns="http://www.w3.org/2000/svg" xmlns:xlink="http://www.w3.org/1999/xlink" x="0" y="0" width="80" height="80" viewBox="0, 0, 80, 80">
  <g id="Layer_3">
    <path d="M32.111,70.801 C32.085,70.775 32.045,70.74 32.021,70.724 C31.492,70.88 31.017,70.373 30.649,70.004 C30.147,69.854 29.516,69.847 28.97,69.768 C28.077,69.58 27.207,70.159 26.524,69.52 C26.517,69.161 27.015,68.735 27.214,68.538 C27.554,68.314 27.818,68.086 28.175,67.892 C28.675,67.634 29.087,67.348 29.606,67.134 C30.058,66.977 30.453,66.699 30.868,66.466 C30.944,65.852 30.992,65.769 31.046,65.106 C30.939,65.029 30.295,64.929 29.94,64.893 C29.411,64.829 28.884,64.915 28.356,64.92 C27.613,65.18 27.432,64.808 26.842,64.461 C26.327,64.316 26.099,64.145 25.717,63.747 C25.42,63.401 25.211,62.994 24.999,62.594 C24.465,61.734 23.876,61.167 23.475,60.181 C23.274,59.615 23.027,59.078 22.893,58.49 C22.845,58.261 22.701,57.786 22.669,57.757 C22.662,57.75 22.577,57.831 22.481,57.937 C22.064,58.408 21.593,58.82 21.151,59.257 C20.832,59.59 20.431,59.737 19.974,59.666 C19.968,59.649 19.949,59.644 19.914,59.651 C19.878,59.659 19.861,59.654 19.853,59.634 C19.847,59.618 19.827,59.606 19.807,59.606 C19.712,59.557 19.617,59.419 19.598,59.314 C19.584,59.268 19.575,59.256 19.593,59.204 C19.938,58.877 19.998,58.523 20.164,58.09 C20.488,57.087 20.698,56.05 20.931,55.023 C21.054,54.445 21.107,53.784 21.055,53.462 C20.911,52.308 20.413,51.248 20.119,50.135 C19.861,49.3 19.852,48.431 19.864,47.565 C19.964,46.317 19.807,45.007 19.709,43.752 C19.717,43.004 19.956,42.175 19.842,41.431 C19.917,40.857 20.074,40.113 20.253,39.495 C20.526,38.168 21.026,37.122 21.75,35.973 C22.561,34.682 23.335,33.369 24.168,32.089 C24.529,31.522 25.025,31.057 25.452,30.54 C26.198,29.592 26.909,28.672 27.747,27.804 C28.095,27.576 27.925,27.468 27.969,27.152 C28.038,26.791 28.214,26.472 28.413,26.167 C28.568,25.948 28.845,25.705 29.017,25.636 C30.234,23.984 31.787,22.989 31.954,21.631 C32.172,19.86 32.1,20.416 31.967,18.62 C31.864,17.383 31.646,16.316 32.055,15.106 C32.432,13.69 32.57,13.479 33.387,12.318 C35.001,10.44 35.692,9.686 37.692,8.758 C39.86,8.345 40.706,8.206 42.695,8.409 C45.373,9.271 46.528,9.753 48.296,11.356 C49.192,12.407 49.978,14.032 50.533,15.83 C50.652,17.921 50.627,18.529 49.683,20.982 C49.191,22.459 49.406,23.46 49.847,24.79 C50.189,25.529 50.304,26.361 50.975,26.495 C51.423,26.584 51.674,27.091 51.699,27.352 C51.774,27.877 51.918,28.287 52.252,28.684 C52.566,29.058 52.884,29.429 53.17,29.825 C53.975,30.871 54.761,31.833 55.433,32.98 C55.776,33.608 56.151,34.197 56.525,34.801 C56.815,35.177 57.02,35.601 57.24,36.018 C57.682,36.777 57.825,37.633 58.038,38.469 C58.27,39.756 58.523,41.063 58.735,42.355 L58.988,46.283 C59.094,48.197 58.487,50.273 57.81,52.047 C57.419,53.008 57.113,54.001 56.777,54.982 C56.315,56.388 56.865,57.51 57.721,58.628 C57.86,58.788 57.874,58.839 57.812,58.96 C57.599,59.251 57.16,59.241 56.855,59.118 C56.53,59.014 56.271,58.803 56.016,58.587 C55.534,58.298 55.168,57.823 54.801,57.393 C54.401,58.029 54.101,58.717 53.873,59.431 C53.604,60.355 53.169,61.103 52.682,61.91 C52.28,62.635 51.507,63.074 51.147,63.822 C50.991,64.162 50.78,64.485 50.519,64.752 C50.201,65.044 49.772,65.099 49.384,65.243 C49.052,65.792 48.606,65.852 47.975,65.819 C47.674,65.772 47.236,65.702 47.095,65.678 C46.389,65.498 46.06,65.887 45.475,66.053 C44.918,66.352 45.717,66.986 46.079,67.091 C46.868,67.496 47.62,67.73 48.471,68.008 C48.907,68.24 49.332,68.473 49.636,68.872 C49.762,69.064 49.876,69.254 49.944,69.473 C49.42,69.883 47.978,69.559 47.287,69.598 C46.71,69.711 46.157,70.001 45.566,70.033 C45.281,70.027 44.924,70.61 44.771,70.828 C44.631,71.048 44.474,71.057 44.25,70.857 C44.003,70.658 43.742,70.475 43.486,70.287 C43.119,69.969 42.672,69.907 42.207,69.844 C41.686,69.757 41.568,69.747 40.891,69.728 C40.14,69.708 39.977,69.713 39.781,69.766 C39.401,69.871 39.192,70.002 38.995,69.586 C38.891,69.336 38.934,69.205 39.158,69.089 C39.487,68.866 39.784,68.6 40.125,68.396 C40.512,68.125 40.913,67.891 41.341,67.689 C41.653,67.551 41.952,67.381 42.277,67.273 L43.325,66.752 L43.404,65.912 C43.101,65.974 42.798,66.039 42.495,66.099 C41.816,66.218 41.115,65.953 40.492,65.69 C40.185,65.306 39.893,64.91 39.659,64.476 C39.517,64.295 39.433,63.635 39.275,63.608 C38.585,63.294 38.483,63.448 37.785,63.537 C37.593,64.054 36.892,64.889 36.43,65.354 C35.972,65.64 35.462,65.374 34.925,65.27 C34.335,64.875 33.703,64.969 33.059,64.945 C33.226,65.59 32.994,65.857 32.954,66.516 C33.154,66.985 33.898,67.371 34.627,67.632 C35.408,67.979 36.331,68.486 36.672,69.051 C36.925,69.281 36.928,69.544 36.516,69.736 C36.274,69.782 35.973,69.704 35.724,69.673 C35.305,69.625 34.886,69.576 34.468,69.515 C34.078,69.453 33.431,69.525 33.431,69.63 C33.378,69.924 32.525,71.066 32.111,70.801 L32.111,70.801 z" fill="#FFFBFB"/>
    <path d="M32.86,69.292 C32.628,69.687 32.33,70.625 31.828,70.121 C31.503,69.904 31.11,69.429 30.723,69.333 C30.674,69.333 30.618,69.322 30.598,69.309 C30.302,69.197 29.808,69.201 29.493,69.159 C29.029,69.087 28.567,69.01 28.092,69.044 C27.757,69.04 27.359,69.302 27.353,69.297 C27.338,69.281 27.54,68.952 27.746,68.831 C28.363,68.468 28.549,68.376 29.107,68.156 C29.342,68.061 29.578,67.962 29.82,67.888 C29.848,67.872 29.994,67.81 30.521,67.591 C30.869,67.444 31.605,66.89 31.453,66.423 C31.36,66.118 31.457,65.729 31.52,65.196 C32.017,65.236 32.21,65.165 32.693,65.042 C32.732,65.218 32.659,65.403 32.631,65.574 C32.506,66.184 32.526,66.165 32.631,66.783 C33.311,67.637 35.512,68.279 35.992,69.27 L34.437,68.9 C33.665,69.031 33.259,68.973 32.86,69.292 z" fill="#FFFBFB"/>
    <path d="M44.552,69.896 C44.399,70.008 44.382,70.199 44.219,70.03 C44.048,69.884 43.863,69.757 43.684,69.622 C43.1,69.41 42.968,69.466 42.36,69.24 C41.847,69.154 41.331,68.962 41.031,69.059 C40.676,69.173 39.757,69.443 39.875,69.217 C40.022,68.908 41.221,68.588 41.498,68.464 C42.169,68.144 42.874,67.895 43.525,67.532 C43.992,67.278 43.882,67.132 43.921,66.684 C43.977,66.408 44.026,66.207 43.893,65.951 C44.158,65.915 44.501,65.901 44.745,66.02 C45.013,66.266 44.639,66.948 45.042,67.204 C45.541,67.693 46.216,67.753 47.044,68.109 C47.103,68.109 47.744,68.337 48.07,68.421 C48.979,68.657 49.435,69.295 48.436,68.861 C48.417,68.853 48.094,68.909 47.792,68.914 C47.221,68.926 46.685,68.895 46.145,69.093 C45.943,69.149 45.003,69.363 44.913,69.623 C44.75,69.599 44.659,69.82 44.552,69.896 z" fill="#FFFBFB"/>
    <path d="M43.148,65.129 L43.148,65.129 C42.536,65.261 41.899,65.47 41.288,65.226 C40.871,65.078 40.48,64.775 40.269,64.383 C39.824,63.851 40.103,63.095 39.521,62.567 C38.629,63.019 37.952,62.701 37.422,62.381 C37.183,62.801 37.301,63.268 36.813,63.596 C36.677,63.793 36.145,64.552 35.888,64.432 C35.569,64.372 35.332,64.651 35.006,64.608 C34.528,64.553 34.053,64.213 33.554,64.197 C32.628,64.106 31.854,64.621 30.968,64.375 C30.611,64.258 30.526,64.237 30.245,64.191 C29.463,64.089 28.283,64.394 27.673,63.924 C27.65,63.691 27.423,63.533 27.313,63.339 C27.065,62.833 26.62,62.345 26.487,61.829 C26.33,60.901 25.943,60.181 25.874,59.225 C25.711,57.925 25.74,57.341 25.64,56.035 C25.499,54.456 25.697,53.698 25.998,51.831 C26.48,50.144 26.635,48.523 26.828,46.789 C26.939,44.569 26.661,42.201 27.414,40.11 C27.596,39.706 27.816,39.332 28.069,38.97 C28.353,38.531 28.834,38.236 28.986,37.695 L29.116,40.117 C29.306,40.807 29.53,41.494 29.886,42.108 C30,42.421 29.958,42.559 30.314,42.766 C31.475,43.325 32.63,43.948 33.921,44.139 C34.748,44.233 35.574,44.389 36.408,44.446 C38.11,44.673 39.695,44.836 41.417,44.637 C42.222,44.59 43.025,44.525 43.828,44.446 C44.456,44.391 45.09,44.341 45.712,44.239 C45.73,44.242 45.752,44.239 45.762,44.233 C46.213,44.163 46.666,44.108 47.121,44.087 C47.728,44.061 48.043,43.771 48.588,43.772 C49.168,43.207 49.324,42.062 49.87,41.44 C50.066,41.051 50.189,40.741 50.255,40.464 C50.302,40.269 50.389,39.959 50.44,39.81 C50.467,39.729 50.538,39.506 50.597,39.314 C50.656,39.122 50.716,38.936 50.73,38.899 C50.743,38.863 50.773,38.762 50.796,38.676 C50.82,38.589 50.843,38.513 50.849,38.508 C50.854,38.502 50.879,38.517 50.905,38.54 C51.564,39.282 51.705,40.162 51.559,41.136 C51.384,42.224 51.218,43.327 51.372,44.428 C51.44,45.421 51.376,46.4 51.587,47.399 C51.78,48.36 51.777,49.255 51.748,50.227 C51.708,51.616 51.96,53.088 51.748,54.463 C51.446,56.278 51.348,58.319 50.797,60.123 C50.231,61.532 49.982,62.612 49.369,63.831 C49.159,64.198 48.938,64.641 48.59,64.895 C48.211,65.122 47.988,64.994 47.548,64.931 C46.649,64.804 45.927,64.924 45.115,65.287 C44.466,65.246 43.822,64.941 43.148,65.129 z" fill="#FFFBFB"/>
    <path d="M50.804,62.923 L50.804,62.923 C50.646,63.164 50.534,63.43 50.383,63.674 C50.272,63.84 50.177,63.942 50.234,63.835 C50.36,63.57 50.447,63.291 50.56,63.021 C50.875,62.28 51.112,61.511 51.363,60.747 C51.687,59.583 52.065,58.553 52.118,57.346 C52.149,56.34 52.342,55.251 52.474,54.254 C52.619,52.971 52.305,51.574 52.475,50.328 C52.86,51.294 53.085,52.338 53.116,53.376 C53.291,54.295 53.529,55.09 53.934,55.929 C54.046,56.197 54.439,56.701 54.298,56.929 C54.21,57.029 53.846,57.66 53.688,57.985 C53.201,59.143 52.909,60.405 52.127,61.414 C51.735,61.961 51.235,62.409 50.804,62.923 z" fill="#FFFBFB"/>
    <path d="M26.481,63.367 C27.014,64.049 25.556,62.955 25.636,62.577 C25.364,62.08 25.02,61.647 24.671,61.204 C24.463,60.934 24.24,60.67 24.149,60.335 C24.007,59.865 23.959,59.792 23.788,59.453 C23.557,58.836 23.09,57.706 23.118,57.068 C23.27,56.816 23.404,56.507 23.64,56.329 C24.093,55.848 24.331,55.228 24.632,54.649 C24.83,54.179 25.021,53.707 25.217,53.237 C24.391,56.225 25.096,58.378 25.438,60.73 C25.654,61.623 25.859,62.652 26.481,63.367 z" fill="#FFFBFB"/>
    <path d="M21.077,58.255 L21.077,58.255 C20.997,58.345 20.939,58.396 20.94,58.376 C20.941,58.355 21.062,57.902 21.121,57.698 C21.244,57.254 21.344,56.802 21.458,56.356 C21.603,55.787 21.735,55.212 21.821,54.631 C21.892,53.66 21.774,52.872 21.463,51.956 C21.279,51.37 21.082,50.775 20.914,50.191 C20.559,48.341 20.969,46.529 20.504,44.667 C20.452,43.72 20.525,42.769 20.561,41.823 C20.751,40.825 20.907,39.83 21.208,38.852 C21.69,37.597 22.319,36.394 23.09,35.291 C23.566,34.529 23.979,33.729 24.503,32.997 C25.076,32.089 25.775,31.359 26.457,30.537 C26.759,30.186 27.032,29.81 27.334,29.459 C27.733,28.948 28.214,28.505 28.611,27.996 C29.295,28.419 29.791,29.057 30.351,29.621 C30.603,29.88 30.869,30.137 31.116,30.391 C31.116,30.406 31.122,30.418 31.129,30.418 C31.37,31.161 28.961,32.839 29.409,34.104 C29.283,34.879 29.245,35.871 28.85,36.511 C28.22,37.426 27.505,38.281 26.934,39.235 C26.407,40.317 26.056,41.478 26.231,42.694 C26.253,43.04 26.27,43.959 26.219,44.228 C26.229,44.238 26.255,44.297 26.22,44.272 C26.162,44.687 26.157,45.158 26.182,45.562 C26.169,45.571 26.154,45.568 26.146,45.556 C26.136,45.54 26.133,45.539 26.132,45.555 C26.132,45.567 26.14,45.581 26.149,45.586 C26.094,46.546 26.194,47.869 25.808,48.75 C25.739,49.066 25.59,49.595 25.534,49.818 C25.54,49.801 25.54,49.791 25.533,49.797 C25.183,50.677 25.058,51.637 24.671,52.505 C24.618,52.649 24.482,52.962 24.459,52.993 C24.109,53.656 23.937,54.414 23.479,55.023 C23.137,55.495 22.873,56.018 22.552,56.504 C22.264,56.966 22,57.379 21.578,57.748 C21.337,57.989 21.112,58.217 21.077,58.255 z" fill="#FFFBFB"/>
    <path d="M56.287,54.003 C55.497,55.298 56.111,57.889 56.92,58.503 L56.051,57.784 C55.457,57.279 55.029,56.616 54.823,56.19 C54.282,55.32 54.177,54.365 53.945,53.385 C53.936,53.385 53.925,53.373 53.919,53.358 C53.842,52.304 53.747,51.346 53.349,50.445 C53.141,49.83 52.801,49.259 52.662,48.619 C52.32,47.2 52.173,45.839 52.184,44.367 C52.091,43.671 52.062,42.945 52.224,42.259 C52.292,41.852 52.368,41.223 52.394,40.849 C52.411,40.606 52.41,40.582 52.34,39.784 C52.276,39.267 52.104,38.927 51.758,38.538 C51.522,38.244 51.396,38.124 51.103,37.907 C51.049,37.867 51.023,37.834 51.019,37.801 C51.016,37.774 51.072,37.516 51.145,37.226 C51.394,36.032 51.369,34.948 51.109,33.765 C50.736,32.565 50.476,31.758 49.627,30.821 C49.627,30.772 49.801,30.628 50.061,30.417 C50.526,30.023 51.148,29.329 51.477,28.771 C52.175,29.618 52.731,30.353 53.393,31.289 C54.205,32.308 54.892,33.402 55.513,34.546 C56.26,35.805 56.958,36.822 57.202,38.307 C57.471,40.438 58.022,42.539 58.215,44.686 C58.146,46.068 58.258,47.494 57.906,48.846 C57.807,49.344 57.698,49.843 57.54,50.327 C57.397,50.767 57.284,51.218 57.115,51.651 C56.826,52.43 56.523,53.206 56.287,54.003 z" fill="#FFFBFB"/>
    <path d="M40.099,43.922 L40.099,43.922 C38.502,43.998 36.968,43.798 35.385,43.575 C35.233,43.562 34.741,43.614 34.758,43.407 C34.715,42.886 34.019,42.333 34.071,41.719 C33.858,40.895 33.721,40.066 33.66,39.218 C33.536,36.791 33.698,34.523 34.75,32.283 C35.002,31.636 35.339,31.04 35.735,30.468 C35.855,30.284 35.96,30.098 36.048,29.899 L39.097,29.697 C40.1,29.851 41.109,29.971 42.111,30.132 C42.665,30.203 43.937,30.133 44.28,30.457 C44.454,30.888 44.752,31.26 44.873,31.716 C45.111,32.341 45.336,33.03 45.389,33.3 C45.6,34.412 45.725,35.54 45.551,36.645 C45.667,37.83 45.537,38.694 45.258,39.849 C45.034,41.051 44.717,42.21 44.202,43.323 C44.015,44.321 40.857,43.633 40.099,43.922 z" fill="#FFFBFB"/>
    <path d="M38.283,42.164 C39.698,42.317 39.924,42.347 41.08,41.866 C41.631,41.018 41.068,40.451 41.453,39.794 C42.284,39.445 43.376,39.674 44.042,39.031 C44.306,38.235 44.416,36.739 43.693,36.28 C42.871,36.235 42.452,35.835 41.612,35.972 C40.933,35.154 41.771,33.853 40.809,33.437 C39.785,33.37 38.392,33.143 38.027,33.59 C37.722,33.963 38.428,36.156 37.581,36.092 C35.851,36.322 34.611,36.115 35.096,38.542 C35.649,39.993 35.89,39.612 37.6,39.915 C38.338,40.056 37.283,41.811 38.283,42.164 z" fill="#FFFBFB"/>
    <path d="M40.513,41.674 C39.723,41.836 39.224,41.949 38.407,41.659 C37.998,40.959 38.792,39.596 37.84,39.287 C37.071,39.372 36.062,39.542 35.619,38.709 C35.647,38.002 35.185,37.175 35.812,36.939 C36.409,36.858 36.946,36.464 38.02,36.76 C38.755,36.754 38.315,34.386 38.391,33.944 C39,33.94 40.614,33.713 40.792,34.293 C40.793,35.039 40.653,35.792 41.013,36.405 C41.911,36.673 42.722,36.534 43.587,36.823 C43.592,37.302 43.795,38.661 43.51,38.883 C42.762,38.919 41.742,39.308 40.946,39.11 C40.663,39.887 41.046,41.081 40.513,41.674 z" fill="#FFFBFB"/>
    <path d="M45.614,43.139 C45.555,43.295 45.331,43.512 45.169,43.525 C45.046,43.531 44.982,43.52 45.018,43.498 C45.044,43.469 45.034,43.427 45.065,43.4 C45.377,42.392 45.616,41.419 45.877,40.503 C46.1,39.33 46.184,38.317 46.245,36.927 C46.19,35.827 46.255,34.714 46.081,33.624 C45.921,32.836 45.826,32.075 45.534,31.326 C45.427,31.029 45.266,30.763 45.126,30.482 C45.208,30.399 45.8,30.38 45.839,30.553 C46.086,31.223 46.304,31.883 46.521,32.561 C46.938,33.604 47.066,34.844 47.058,35.955 C47.116,37.426 46.948,38.874 46.69,40.246 C46.42,41.162 46.264,42.365 45.614,43.139 z" fill="#FFFBFB"/>
    <path d="M48.097,43.021 C47.744,43.147 46.472,43.65 46.213,43.352 C46.684,42.317 47.076,41.655 47.365,39.915 C47.425,39.177 47.588,38.499 47.656,37.762 C47.729,37.207 47.65,36.586 47.704,36.029 C47.732,34.578 47.435,33.166 46.93,31.81 C46.854,31.603 46.323,30.557 46.668,30.543 C46.949,30.573 47.432,30.786 47.741,30.822 C48.159,31.017 48.613,31.133 49.049,31.272 C49.507,31.588 49.944,32.474 50.133,33.006 C50.288,33.5 50.578,34.37 50.565,34.867 C50.554,34.88 50.549,34.895 50.554,34.899 C50.558,34.904 50.57,35.166 50.581,35.483 C50.606,36.224 50.614,36.16 50.362,37.188 C50.132,38.167 49.853,39.106 49.584,40.072 C49.274,40.988 48.812,41.911 48.28,42.717 C48.28,42.759 48.142,42.988 48.097,43.021 z" fill="#FFFBFB"/>
    <path d="M33.915,43.256 C33.878,43.494 33.502,43.321 33.407,43.206 C33.136,42.532 32.635,41.947 32.517,41.187 C32.284,40.35 32.114,39.5 32.028,38.634 C31.972,37.839 31.979,37.027 32.162,36.247 C32.305,35.433 32.389,34.601 32.658,33.816 C32.903,33.04 33.045,32.25 33.469,31.551 C33.836,30.641 33.739,30.156 34.487,30.047 C34.621,30.006 34.947,30.008 34.954,30.015 C34.961,30.022 34.944,30.059 34.916,30.097 C34.663,30.464 34.564,30.949 34.352,31.341 C34.104,31.916 33.922,32.419 33.726,33.015 C33.25,34.945 33.018,36.082 32.984,38.315 C32.996,39.278 33.156,40.158 33.251,41.188 C33.614,42.19 33.531,42.571 33.901,43.2 C33.921,43.192 33.924,43.203 33.915,43.256 z" fill="#FFFBFB"/>
    <path d="M32.27,42.788 C32.288,42.823 32.307,42.858 32.318,42.897 C31.525,42.701 30.743,42.329 30.416,41.553 C30.138,40.543 29.664,39.369 29.72,38.233 C29.823,36.082 29.65,32.739 31.679,31.387 C32.045,31.188 32.403,30.973 32.771,30.779 C33.021,30.636 33.12,30.59 33.12,30.616 C32.806,31.273 32.593,31.924 32.343,32.609 C31.998,33.576 31.714,34.628 31.588,35.649 C31.253,37.327 31.223,38.904 31.679,40.564 C31.909,41.538 31.996,41.957 32.27,42.788 z" fill="#FFFBFB"/>
    <path d="M49.375,30.016 C49.217,30.148 48.797,30.361 48.681,30.324 C48.527,30.243 48.431,30.209 48.241,30.167 C48.583,28.926 50.001,28.327 50.544,26.916 C50.747,26.743 51.454,27.349 51.245,27.795 C51.281,28.265 50.954,28.227 50.707,28.683 C50.136,29.398 49.768,29.721 49.375,30.016 z" fill="#FFFBFB"/>
    <path d="M32.558,29.786 C32.893,30.037 31.986,30.304 31.784,30.248 C31.471,29.899 31.141,29.564 30.813,29.228 C30.17,28.565 29.453,27.903 28.746,27.354 C28.825,26.93 29.072,26.537 29.427,26.288 C30.089,26.692 30.649,27.17 31.03,27.857 C31.496,28.527 31.958,29.228 32.558,29.786 z" fill="#FFFBFB"/>
    <path d="M47.556,29.775 C47.402,29.965 47.605,30.099 47.241,29.942 C46.621,29.679 45.953,29.594 45.282,29.617 C45.073,29.612 44.019,29.694 43.529,29.53 C43.119,29.549 43.233,29.548 43.201,29.187 C43.167,28.807 42.698,28.518 42.652,28.113 C42.608,27.72 42.906,27.518 43.014,27.052 C42.901,26.773 42.78,26.429 42.489,26.333 C42.134,26.282 41.777,26.403 41.467,26.573 C41.176,26.764 40.947,27.022 40.69,27.254 C40.613,27.308 40.349,27.574 40.169,27.577 C39.749,27.615 39.8,27.278 39.351,27.19 C38.885,27.173 38.758,27.524 38.563,27.565 C38.507,27.556 38.489,27.45 38.427,27.35 C38.167,26.959 37.708,26.846 37.315,26.601 C36.942,26.441 36.234,26.312 35.913,26.634 C35.377,26.857 35.939,27.553 36.153,27.85 C36.225,27.995 35.976,28.393 35.932,28.55 C35.889,28.523 35.971,28.877 36.021,28.954 C36.134,29.152 35.724,29.044 35.594,29.067 C35.315,29.097 34.73,29.227 34.331,29.347 C33.981,29.451 33.627,29.544 33.279,29.657 L33.126,29.519 C32.616,29.02 32.195,28.408 31.799,27.874 C32.004,27.293 32.343,26.697 32.76,26.311 C33.108,25.786 33.345,25.117 33.657,24.571 C34.037,23.724 34.698,22.953 34.934,22.037 C35.246,20.716 34.805,19.24 34.649,18.644 C34.985,18.992 35.717,20.047 36.146,20.602 C36.494,21.148 37.138,21.87 37.409,22.462 C37.791,23.212 38.06,23.356 38.65,23.987 C39.119,24.249 39.523,24.398 40.046,24.538 C40.874,24.529 41.547,24.504 42.251,24.171 C43.404,23.373 44.339,22.389 45.642,21.838 C46.073,21.616 46.681,21.099 47.139,20.957 C47.008,21.154 46.907,21.784 46.844,22.016 C46.619,22.744 46.65,23.555 46.761,24.2 C46.837,24.985 47.154,25.731 47.4,26.474 C47.726,27.262 47.97,27.944 48.175,28.77 C48.228,28.837 48.266,28.913 48.301,28.991 L48.166,29.124 C47.943,29.327 47.715,29.519 47.556,29.775 z" fill="#FFFBFB"/>
    <path d="M42.773,29.32 C42.863,29.464 41.743,29.261 41.658,29.276 C41.322,29.234 40.207,29.078 40.363,28.639 C40.474,28.421 40.465,28.074 40.667,28.066 C41.133,27.881 40.852,27.793 41.362,27.494 C41.501,27.41 42.209,26.849 42.456,27.014 C42.677,27.161 41.98,27.833 42.099,28.193 C42.273,28.721 42.739,28.641 42.773,29.32 z" fill="#FFFBFB"/>
    <path d="M38.337,28.837 L38.337,28.837 C37.96,28.917 36.721,29.189 36.561,28.866 C36.62,28.484 37.027,28.293 36.822,27.975 C36.697,27.756 36.139,27.211 36.217,26.955 C36.359,26.972 36.462,26.828 36.724,26.863 C37.134,26.938 37.457,27.113 37.769,27.386 C37.887,27.509 38.23,27.875 38.243,28.036 C38.298,28.263 38.462,28.528 38.373,28.763 C38.359,28.787 38.343,28.82 38.337,28.837 z" fill="#FFFBFB"/>
    <path d="M49.182,28.092 L49.182,28.092 L49.182,28.092 C48.993,28.316 48.788,28.514 48.779,28.483 C48.774,28.469 48.757,28.399 48.741,28.327 C48.587,27.778 48.283,27.294 48.088,26.759 C47.785,25.958 47.462,25.162 47.323,24.311 C47.211,23.146 47.369,22.195 47.827,21.119 C47.827,20.833 48.502,19.54 47.622,20.178 C47.486,20.16 47.417,20.096 47.339,19.994 C47.26,19.405 46.893,18.949 47.154,18.247 C47.223,17.989 47.286,17.383 47.287,16.981 C47.263,16.191 47.127,15.516 46.791,14.796 C46.531,14.632 45.993,13.948 45.272,13.753 C43.78,13.806 42.807,14.68 42.292,16.007 C42.144,16.378 41.702,17.228 41.9,17.647 C41.995,17.803 40.604,17.719 40.578,17.356 C40.669,16.652 40.568,16.247 40.372,15.571 C40.038,14.651 39.697,13.577 38.759,13.142 C38.539,13.036 38.207,12.975 37.842,12.976 C37.455,12.978 37.088,13.076 36.779,13.321 C36.707,13.375 36.609,13.439 36.561,13.464 C36.062,13.808 35.547,14.245 35.393,14.862 C34.906,16.077 34.766,17.649 34.786,18.047 C34.571,17.572 34.387,17.827 34.103,17.684 C33.958,18.224 35.281,19.779 34.303,22.376 C33.472,23.733 33.374,24.323 32.378,25.794 C31.888,26.526 31.732,26.795 31.255,27.102 C30.836,26.702 30.457,26.253 29.944,25.966 C29.799,24.837 31.736,23.517 32.473,21.932 C32.707,20.927 32.502,19.507 32.495,18.348 C32.211,16.09 32.098,14.885 33.621,13.009 C34.641,10.932 36.982,9.708 39.08,8.969 C42.024,8.684 45.237,9.04 47.449,11.067 C49.216,13.23 50.915,16.618 49.717,19.409 C49.066,20.807 48.665,22.006 48.974,23.563 C49.295,24.523 49.444,25.683 49.998,26.543 C49.789,27.086 49.55,27.637 49.182,28.092 z" fill="#FFFBFB"/>
    <path d="M39.585,28.642 C39.219,28.832 38.635,28.01 39.096,27.76 C39.341,27.561 39.601,27.733 39.725,27.889 C39.873,28.077 39.89,28.356 39.585,28.642 z" fill="#FFFBFB"/>
    <path d="M43.128,23.001 C42.287,23.651 42.094,23.99 40.858,24.114 L40.752,24.157 L40.752,24.157 L40.752,24.157 L40.752,24.157 L40.752,24.157 L40.752,24.157 L40.752,24.157 L40.752,24.157 L40.752,24.157 L40.752,24.157 L40.752,24.157 L40.752,24.157 L40.752,24.157 L40.752,24.157 L40.752,24.157 L40.752,24.157 C39.798,24.399 38.612,23.527 38.026,22.858 C37.479,21.81 36.896,20.766 36.085,19.893 C35.792,19.594 35.375,18.845 35.096,18.559 C35.508,18.587 35.999,18.606 36.534,18.452 C37.808,17.692 39.637,17.542 41.059,18.021 C42.19,17.824 42.957,18.292 43.996,18.693 C44.9,19.03 46.817,20.034 47.201,20.212 C46.984,20.347 46.389,20.736 46.186,20.897 C45.865,21.12 45.584,21.366 45.324,21.511 C44.536,21.95 44.139,22.241 43.128,23.001 z" fill="#FFFBFB"/>
    <path d="M46.666,19.53 C46.669,19.654 45.6,19.051 45.481,18.721 C45.532,18.437 46.347,17.216 45.551,16.301 C45.084,15.857 44.591,15.915 44.048,16.021 C43.22,16.478 43.225,17.412 43.295,18.135 C43.09,18.083 42.784,17.882 42.575,17.854 C42.434,17.834 42.364,17.581 42.414,17.358 C42.537,16.499 43.102,15.1 43.867,14.774 C46.626,13.598 46.835,15.798 46.881,16.957 C46.844,18.067 46.645,18.78 46.666,19.53 z" fill="#FFFBFB"/>
    <path d="M36.813,17.941 C36.484,18.067 35.425,18.521 35.172,18.163 C35.411,17.668 35.525,17.13 35.662,16.6 C35.971,15.43 36.176,14.51 37.278,13.864 C38.345,13.43 39.088,13.89 39.541,14.895 C39.759,15.417 40.363,17.063 39.863,17.472 C39.704,17.452 39.225,17.465 39.08,17.403 C39.155,17.017 39.189,15.756 38.048,15.336 C37.746,15.224 37.382,15.102 36.82,15.55 C35.915,16.272 36.491,17.44 36.813,17.941 z" fill="#FFFBFB"/>
    <path d="M35.158,18.168 C35.147,18.184 35.133,18.195 35.132,18.168 C35.138,18.159 35.147,18.151 35.151,18.151 C35.155,18.151 35.158,18.159 35.158,18.168 z" fill="#FFFBFB"/>
  </g>
  <g id="Layer_1">
    <g id="g4164">
      <path d="M30.473,33.656 C35.435,32.357 40.407,31.299 50.859,34.495" fill-opacity="0" stroke="#1E120B" stroke-width="0.175" id="path4022"/>
      <path d="M51.123,36.231 C44.139,34.282 37.061,33.716 30.077,35.752" fill-opacity="0" stroke="#1E120B" stroke-width="0.175" id="path4024"/>
      <path d="M29.879,37.489 C37.136,39.008 44.217,38.918 51.123,37.729" fill-opacity="0" stroke="#1E120B" stroke-width="0.175" id="path4026"/>
      <path d="M29.681,39.106 C36.786,40.037 43.751,40.543 50.331,39.885" fill-opacity="0" stroke="#1E120B" stroke-width="0.175" id="path4028"/>
      <path d="M49.935,42.1 C43.487,42.65 36.965,42.468 30.341,41.262" fill-opacity="0" stroke="#1E120B" stroke-width="0.175" id="path4030"/>
      <path d="M50.199,32.518 C41.562,30.791 35.757,31.1 31.33,32.399" fill-opacity="0" stroke="#1E120B" stroke-width="0.175" id="path4032"/>
      <path d="M30.407,42.46 C36.305,43.541 43.725,44.246 49.275,43.119" fill-opacity="0" stroke="#1E120B" stroke-width="0.175" id="path4034"/>
      <path d="M30.209,36.651 C36.878,36.118 43.728,36.129 50.925,37.19 L50.925,37.19" fill-opacity="0" stroke="#1E120B" stroke-width="0.175" id="path4036"/>
    </g>
    <path d="M29.382,26.248 C28.968,26.426 28.634,26.98 28.667,27.39 C29.765,28.377 30.726,29.566 31.94,30.394 C32.368,30.349 33.117,29.956 32.491,29.547 C31.503,28.482 30.87,26.956 29.536,26.259 C29.486,26.246 29.434,26.237 29.382,26.248 z" fill="#C87137" id="path3093"/>
    <path d="M39.526,8.606 C35.668,10.075 35.948,9.949 34.583,11.271 C33.458,12.569 32.328,14.099 32.084,16.002 C32.005,17.822 32.68,19.607 32.487,21.416 C31.957,22.94 30.143,24.148 29.805,25.746 C29.717,26.268 30.392,26.303 30.626,26.664 C30.967,27.137 31.48,27.376 31.813,26.772 C32.984,25.226 33.983,23.495 34.618,21.656 C35.054,20.383 34.542,19.002 34.266,17.825 C34.64,18.19 35.201,18.637 34.903,17.596 C35.174,16.105 35.325,14.257 36.843,13.462 C37.868,12.773 39.235,13.295 39.783,14.33 C40.381,15.278 40.158,16.414 40.278,17.499 C40.588,18.04 42.473,18.358 42.207,17.218 C42.577,15.731 43.326,14.059 45.037,13.848 C46.16,14.284 46.86,15.305 47.071,16.184 C47.391,17.485 46.537,18.935 47.33,20.124 C47.536,20.356 48.113,20.034 47.835,20.548 C47.201,22.234 46.899,24.169 47.633,25.888 C48.004,26.7 48.023,27.986 48.618,28.661 C49.232,28.812 49.529,27.616 49.803,27.245 C50.327,26.719 49.967,26.144 49.715,25.596 C49.044,23.866 48.733,21.862 49.576,20.12 C50.569,18.087 50.3,15.665 49.273,13.701 C48.46,11.9 47.146,10.266 45.29,9.483 C43.532,8.628 41.468,8.547 39.526,8.606 z" fill="#11151F" id="path3097"/>
    <path d="M28.476,27.926 C26.548,30.247 24.457,32.471 23.015,35.139 C21.801,37.069 20.513,38.789 20.36,41.109 C19.628,44.066 20.231,47.41 20.6,50.21 C20.988,51.919 21.961,53.399 21.54,55.195 C21.424,56.191 20.607,57.66 20.578,58.654 C21.005,58.96 21.695,57.721 21.965,57.486 C24.127,54.772 25.387,51.437 26.075,48.054 C26.336,45.955 26.416,43.834 26.334,41.723 C26.491,39.516 28.251,37.938 29.154,36.027 C29.675,34.814 29.248,33.307 30.214,32.274 C30.623,31.659 32.455,30.967 30.918,30.094 C30.2,29.296 29.53,28.349 28.562,27.87 L28.476,27.926 z" fill="#11151F" id="path3871"/>
    <path d="M51.386,28.701 C50.835,29.448 50.078,30.095 49.55,30.858 C50.69,32.352 51.226,34.215 51.105,36.087 C51.223,36.747 50.705,37.492 51.097,38.083 C51.687,38.611 52.314,39.286 52.135,40.162 C51.548,43.143 51.595,46.081 52.614,48.884 C53.174,50.306 53.675,51.739 53.805,53.266 C53.733,55.328 55.113,57.727 56.917,58.685 C57.352,58.448 56.309,57.357 56.281,57 C55.915,55.905 56.043,54.715 56.533,53.673 C57.397,51.16 58.561,48.747 58.367,46.034 C58.88,43.216 57.905,39.999 57.211,37.264 C56.553,35.13 55.058,33.617 53.87,31.753 C53.096,30.73 52.459,29.551 51.498,28.701 L51.483,28.697 L51.386,28.701 z" fill="#11151F" id="path3873"/>
    <path d="M24.723,54.15 C24.268,55.174 23.6,56.086 23.023,57.023 C23.03,58.301 23.697,59.494 24.213,60.635 C24.714,61.557 25.355,62.402 25.925,63.281 C26.171,63.729 27.857,64.922 26.551,63.27 C25.396,61.247 25.2,58.843 25.061,56.551 C25.003,55.736 25.522,53.528 25.367,52.738 C25.253,52.675 24.804,54.064 24.723,54.15 z" fill="#11151F" id="path3875"/>
    <path d="M52.285,49.882 C51.909,50.323 52.424,51.946 52.312,52.491 C52.29,55.768 51.758,58.976 50.584,62.048 C50.488,62.295 49.538,64.715 50.099,64.498 C51.335,63.396 52.948,60.448 53.491,58.884 C53.739,58.143 54.231,57.467 54.476,56.738 C53.616,55.167 53.246,53.442 53.011,51.686 C52.893,51.412 52.693,49.883 52.285,49.882 z" fill="#11151F" id="path3877"/>
    <path d="M37.974,13.538 C37.137,13.568 36.436,14.194 36.059,14.902 C35.572,15.922 35.46,17.067 35.025,18.102 C34.983,18.379 35.337,18.476 35.553,18.458 C36.007,18.427 36.437,18.256 36.862,18.099 C37.074,17.948 36.852,17.72 36.786,17.552 C36.616,17.235 36.491,16.886 36.529,16.52 C36.473,16.053 36.859,15.674 37.245,15.477 C37.606,15.302 38.031,15.478 38.343,15.677 C38.792,15.999 38.953,16.569 38.938,17.097 C38.942,17.277 38.892,17.583 39.153,17.585 C39.421,17.608 39.709,17.669 39.967,17.574 C40.253,17.356 40.215,16.94 40.193,16.62 C40.092,15.876 39.862,15.142 39.502,14.483 C39.202,13.923 38.625,13.514 37.974,13.538 z" fill="#FFF6F3" id="path4180"/>
    <path d="M44.95,13.984 C44.463,14.023 44.101,14.413 43.778,14.741 C43.097,15.464 42.723,16.415 42.472,17.359 C42.451,17.558 42.333,17.811 42.488,17.979 C42.735,18.103 42.996,18.226 43.267,18.279 C43.486,18.274 43.468,18.021 43.451,17.867 C43.459,17.278 43.666,16.647 44.157,16.286 C44.697,15.857 45.615,16.053 45.88,16.709 C46.125,17.283 45.893,17.956 45.498,18.407 C45.403,18.589 45.099,18.668 45.157,18.906 C45.495,19.291 45.988,19.519 46.481,19.628 C46.737,19.629 46.689,19.315 46.698,19.143 C46.685,18.257 46.985,17.39 46.893,16.499 C46.845,15.748 46.709,14.921 46.149,14.369 C45.868,14.09 45.468,13.961 45.078,13.984 C45.035,13.983 44.992,13.982 44.95,13.984 z" fill="#FFF6F3" id="path4182"/>
    <path d="M34.638,18.709 C34.426,18.833 34.591,19.098 34.616,19.279 C34.858,20.229 35.007,21.258 34.703,22.214 C34.404,23.044 33.857,23.75 33.49,24.549 C33.184,25.118 32.947,25.738 32.571,26.26 C32.459,26.42 32.177,26.59 32.312,26.813 C32.472,26.978 32.74,26.897 32.943,26.953 C33.867,27.062 34.771,27.303 35.692,27.422 C35.902,27.443 35.952,27.199 35.873,27.049 C35.841,26.952 35.854,26.839 35.965,26.796 C36.137,26.653 36.355,26.585 36.577,26.616 C37.077,26.602 37.502,26.889 37.92,27.127 C38.154,27.233 38.291,27.451 38.429,27.654 C38.614,27.831 38.812,27.592 38.959,27.487 C39.141,27.332 39.425,27.315 39.596,27.496 C39.798,27.706 40.128,27.838 40.395,27.663 C40.99,27.331 41.373,26.626 42.085,26.519 C42.275,26.487 42.529,26.446 42.634,26.658 C42.709,26.798 42.833,26.945 42.827,27.108 C42.75,27.262 42.812,27.477 43.006,27.485 C43.607,27.639 44.241,27.582 44.856,27.565 C45.783,27.478 46.701,27.28 47.636,27.342 C47.821,27.356 47.885,27.127 47.784,26.989 C47.478,26.207 47.183,25.414 46.99,24.596 C46.835,23.75 46.776,22.868 47.002,22.033 C47.039,21.772 47.149,21.52 47.172,21.262 C47.147,21.099 46.924,21.082 46.804,21.174 C46.245,21.459 45.732,21.809 45.158,22.067 C44.04,22.67 43.101,23.537 42.027,24.206 C41.414,24.483 40.729,24.61 40.061,24.6 C39.423,24.417 38.843,24.081 38.292,23.713 C37.602,23.206 37.346,22.346 36.879,21.661 C36.256,20.686 35.597,19.73 34.897,18.808 C34.835,18.725 34.744,18.675 34.638,18.709 z" fill="#FFF6F3" id="path4184"/>
    <path d="M48.006,28.26 C46.359,28.562 44.67,28.599 42.997,28.515 C42.786,28.523 42.788,28.789 42.903,28.911 C43.096,29.113 42.974,29.442 43.154,29.646 C43.335,29.73 43.551,29.684 43.744,29.744 C44.605,29.814 45.479,29.756 46.336,29.85 C46.71,29.908 47.05,30.058 47.404,30.165 C47.575,30.187 47.637,30.012 47.688,29.883 C47.89,29.553 48.24,29.336 48.453,29.018 C48.458,28.829 48.287,28.676 48.268,28.483 C48.239,28.362 48.148,28.231 48.006,28.26 z" fill="#FFF6F3" id="path4188"/>
    <path d="M31.833,27.632 C31.626,27.65 31.593,27.921 31.731,28.045 C32.176,28.663 32.624,29.293 33.196,29.8 C33.445,29.838 33.679,29.68 33.922,29.638 C34.519,29.48 35.117,29.266 35.737,29.23 C35.92,29.273 36.228,29.205 36.196,28.96 C36.102,28.761 36.118,28.429 35.835,28.396 C34.622,28.19 33.396,28.032 32.19,27.797 C32.07,27.742 31.98,27.613 31.833,27.632 z" fill="#FFF6F3" id="path4186"/>
    <path d="M28.885,37.645 C28.739,37.782 28.699,38.003 28.549,38.144 C28.168,38.563 27.807,39.014 27.534,39.519 C27.026,40.423 26.864,41.472 26.776,42.492 C26.662,44.07 26.747,45.659 26.614,47.235 C26.458,48.669 26.272,50.109 25.92,51.507 C25.754,52.145 25.684,52.807 25.57,53.457 C25.316,54.985 25.522,56.535 25.605,58.069 C25.664,59.018 25.778,59.969 26.077,60.875 C26.267,61.439 26.307,62.062 26.657,62.562 C26.92,63.005 27.183,63.448 27.484,63.865 C27.621,64.215 28.044,64.295 28.376,64.33 C29.051,64.377 29.734,64.311 30.405,64.383 C30.895,64.529 31.414,64.665 31.927,64.563 C32.644,64.453 33.401,64.213 34.108,64.498 C34.509,64.619 34.933,64.878 35.358,64.715 C35.57,64.642 35.783,64.583 36.005,64.589 C36.503,64.441 36.712,63.913 37.07,63.586 C37.336,63.327 37.384,62.944 37.498,62.61 C37.991,62.879 38.576,63.052 39.131,62.878 C39.255,62.866 39.395,62.751 39.502,62.79 C39.848,63.236 39.759,63.871 40.051,64.348 C40.454,65.083 41.301,65.607 42.153,65.476 C42.689,65.446 43.201,65.213 43.74,65.244 C44.193,65.274 44.632,65.409 45.085,65.441 C45.606,65.301 46.109,65.039 46.66,65.072 C47.111,65.059 47.56,65.082 48.004,65.162 C48.42,65.23 48.823,65.002 49.047,64.659 C49.859,63.523 50.203,62.146 50.697,60.858 C51.398,59.115 51.509,57.218 51.783,55.378 C51.917,54.451 52.042,53.517 51.981,52.578 C51.902,51.105 51.941,49.619 51.858,48.144 C51.788,47.449 51.617,46.77 51.606,46.07 C51.567,45.224 51.518,44.376 51.479,43.531 C51.464,42.614 51.673,41.713 51.745,40.802 C51.838,39.959 51.607,39.065 51.022,38.436 C50.906,38.249 50.656,38.374 50.656,38.571 C50.367,39.424 50.173,40.31 49.83,41.142 C49.681,41.462 49.44,41.73 49.313,42.063 C49.059,42.577 48.893,43.154 48.522,43.599 C48.168,43.661 47.821,43.77 47.473,43.861 C46.792,43.973 46.098,44.006 45.414,44.114 C43.722,44.308 42.015,44.446 40.315,44.549 C38.635,44.621 36.971,44.335 35.308,44.16 C34.355,44.028 33.384,43.951 32.487,43.576 C31.755,43.28 31.025,42.95 30.335,42.575 C30.085,42.449 30.098,42.127 29.961,41.912 C29.667,41.33 29.448,40.71 29.28,40.083 C29.228,39.308 29.205,38.527 29.133,37.756 C29.115,37.638 28.982,37.605 28.885,37.645 z" fill="#FFF6F3" id="path4190"/>
    <g id="path3899">
      <path d="M36.237,33.354 C34.116,37.506 35.059,40.845 36.207,43.032 C39.442,43.611 41.376,43.129 44.117,43.032 C46.104,39.292 44.89,35.823 44.507,33.684 C40.882,32.986 39.807,33.064 36.237,33.354 z" fill="#ECECEC"/>
      <path d="M36.237,33.354 C34.116,37.506 35.059,40.845 36.207,43.032 C39.442,43.611 41.376,43.129 44.117,43.032 C46.104,39.292 44.89,35.823 44.507,33.684 C40.882,32.986 39.807,33.064 36.237,33.354 z" fill-opacity="0" stroke="#000000" stroke-width="0.017"/>
    </g>
    <path d="M32.111,70.801 C32.085,70.775 32.045,70.74 32.021,70.724 C31.492,70.88 31.017,70.373 30.649,70.004 C30.147,69.854 29.516,69.847 28.97,69.768 C28.077,69.58 27.207,70.159 26.524,69.52 C26.517,69.161 27.015,68.735 27.214,68.538 C27.554,68.314 27.818,68.086 28.175,67.892 C28.675,67.634 29.087,67.348 29.606,67.134 C30.058,66.977 30.453,66.699 30.868,66.466 C30.944,65.852 30.992,65.769 31.046,65.106 C30.939,65.029 30.295,64.929 29.94,64.893 C29.411,64.829 28.884,64.915 28.356,64.92 C27.613,65.18 27.432,64.808 26.842,64.461 C26.327,64.316 26.099,64.145 25.717,63.747 C25.42,63.401 25.211,62.994 24.999,62.594 C24.465,61.734 23.876,61.167 23.475,60.181 C23.274,59.615 23.027,59.078 22.893,58.49 C22.845,58.261 22.701,57.786 22.669,57.757 C22.662,57.75 22.577,57.831 22.481,57.937 C22.064,58.408 21.593,58.82 21.151,59.257 C20.832,59.59 20.431,59.737 19.974,59.666 C19.968,59.649 19.949,59.644 19.914,59.651 C19.878,59.659 19.861,59.654 19.853,59.634 C19.847,59.618 19.827,59.606 19.807,59.606 C19.712,59.557 19.617,59.419 19.598,59.314 C19.584,59.268 19.575,59.256 19.593,59.204 C19.938,58.877 19.998,58.523 20.164,58.09 C20.488,57.087 20.698,56.05 20.931,55.023 C21.054,54.445 21.107,53.784 21.055,53.462 C20.911,52.308 20.413,51.248 20.119,50.135 C19.861,49.3 19.852,48.431 19.864,47.565 C19.964,46.317 19.807,45.007 19.709,43.752 C19.717,43.004 19.956,42.175 19.842,41.431 C19.917,40.857 20.074,40.113 20.253,39.495 C20.526,38.168 21.026,37.122 21.75,35.973 C22.561,34.682 23.335,33.369 24.168,32.089 C24.529,31.522 25.025,31.057 25.452,30.54 C26.198,29.592 26.909,28.672 27.747,27.804 C28.095,27.576 27.925,27.468 27.969,27.152 C28.038,26.791 28.214,26.472 28.413,26.167 C28.568,25.948 28.845,25.705 29.017,25.636 C30.234,23.984 31.787,22.989 31.954,21.631 C32.172,19.86 32.1,20.416 31.967,18.62 C31.864,17.383 31.646,16.316 32.055,15.106 C32.432,13.69 32.57,13.479 33.387,12.318 C35.001,10.44 35.692,9.686 37.692,8.758 C39.86,8.345 40.706,8.206 42.695,8.409 C45.373,9.271 46.528,9.753 48.296,11.356 C49.192,12.407 49.978,14.032 50.533,15.83 C50.652,17.921 50.627,18.529 49.683,20.982 C49.191,22.459 49.406,23.46 49.847,24.79 C50.189,25.529 50.304,26.361 50.975,26.495 C51.423,26.584 51.674,27.091 51.699,27.352 C51.774,27.877 51.918,28.287 52.252,28.684 C52.566,29.058 52.884,29.429 53.17,29.825 C53.975,30.871 54.761,31.833 55.433,32.98 C55.776,33.608 56.151,34.197 56.525,34.801 C56.815,35.177 57.02,35.601 57.24,36.018 C57.682,36.777 57.825,37.633 58.038,38.469 C58.27,39.756 58.523,41.063 58.735,42.355 L58.988,46.283 C59.094,48.197 58.487,50.273 57.81,52.047 C57.419,53.008 57.113,54.001 56.777,54.982 C56.315,56.388 56.865,57.51 57.721,58.628 C57.86,58.788 57.874,58.839 57.812,58.96 C57.599,59.251 57.16,59.241 56.855,59.118 C56.53,59.014 56.271,58.803 56.016,58.587 C55.534,58.298 55.168,57.823 54.801,57.393 C54.401,58.029 54.101,58.717 53.873,59.431 C53.604,60.355 53.169,61.103 52.682,61.91 C52.28,62.635 51.507,63.074 51.147,63.822 C50.991,64.162 50.78,64.485 50.519,64.752 C50.201,65.044 49.772,65.099 49.384,65.243 C49.052,65.792 48.606,65.852 47.975,65.819 C47.674,65.772 47.236,65.702 47.095,65.678 C46.389,65.498 46.06,65.887 45.475,66.053 C44.918,66.352 45.717,66.986 46.079,67.091 C46.868,67.496 47.62,67.73 48.471,68.008 C48.907,68.24 49.332,68.473 49.636,68.872 C49.762,69.064 49.876,69.254 49.944,69.473 C49.42,69.883 47.978,69.559 47.287,69.598 C46.71,69.711 46.157,70.001 45.566,70.033 C45.281,70.027 44.924,70.61 44.771,70.828 C44.631,71.048 44.474,71.057 44.25,70.857 C44.003,70.658 43.742,70.475 43.486,70.287 C43.119,69.969 42.672,69.907 42.207,69.844 C41.686,69.757 41.568,69.747 40.891,69.728 C40.14,69.708 39.977,69.713 39.781,69.766 C39.401,69.871 39.192,70.002 38.995,69.586 C38.891,69.336 38.934,69.205 39.158,69.089 C39.487,68.866 39.784,68.6 40.125,68.396 C40.512,68.125 40.913,67.891 41.341,67.689 C41.653,67.551 41.952,67.381 42.277,67.273 L43.325,66.752 L43.404,65.912 C43.101,65.974 42.798,66.039 42.495,66.099 C41.816,66.218 41.115,65.953 40.492,65.69 C40.185,65.306 39.893,64.91 39.659,64.476 C39.517,64.295 39.433,63.635 39.275,63.608 C38.585,63.294 38.483,63.448 37.785,63.537 C37.593,64.054 36.892,64.889 36.43,65.354 C35.972,65.64 35.462,65.374 34.925,65.27 C34.335,64.875 33.703,64.969 33.059,64.945 C33.226,65.59 32.994,65.857 32.954,66.516 C33.154,66.985 33.898,67.371 34.627,67.632 C35.408,67.979 36.331,68.486 36.672,69.051 C36.925,69.281 36.928,69.544 36.516,69.736 C36.274,69.782 35.973,69.704 35.724,69.673 C35.305,69.625 34.886,69.576 34.468,69.515 C34.078,69.453 33.431,69.525 33.431,69.63 C33.378,69.924 32.525,71.066 32.111,70.801 L32.111,70.801 z M32.86,69.292 C33.259,68.973 33.665,69.031 34.437,68.9 L35.992,69.27 C35.512,68.279 33.311,67.637 32.631,66.783 C32.526,66.165 32.506,66.184 32.631,65.574 C32.659,65.403 32.732,65.218 32.693,65.042 C32.21,65.165 32.017,65.236 31.52,65.196 C31.457,65.729 31.36,66.118 31.453,66.423 C31.605,66.89 30.869,67.444 30.521,67.591 C29.994,67.81 29.848,67.872 29.82,67.888 C29.578,67.962 29.342,68.061 29.107,68.156 C28.549,68.376 28.363,68.468 27.746,68.831 C27.54,68.952 27.338,69.281 27.353,69.297 C27.359,69.302 27.757,69.04 28.092,69.044 C28.567,69.01 29.029,69.087 29.493,69.159 C29.808,69.201 30.302,69.197 30.598,69.309 C30.618,69.322 30.674,69.333 30.723,69.333 C31.11,69.429 31.503,69.904 31.828,70.121 C32.33,70.625 32.628,69.687 32.86,69.292 z M44.552,69.896 C44.659,69.82 44.75,69.599 44.913,69.623 C45.003,69.363 45.943,69.149 46.145,69.093 C46.685,68.895 47.221,68.926 47.792,68.914 C48.094,68.909 48.417,68.853 48.436,68.861 C49.435,69.295 48.979,68.657 48.07,68.421 C47.744,68.337 47.103,68.109 47.044,68.109 C46.216,67.753 45.541,67.693 45.042,67.204 C44.639,66.948 45.013,66.266 44.745,66.02 C44.501,65.901 44.158,65.915 43.893,65.951 C44.026,66.207 43.977,66.408 43.921,66.684 C43.882,67.132 43.992,67.278 43.525,67.532 C42.874,67.895 42.169,68.144 41.498,68.464 C41.221,68.588 40.022,68.908 39.875,69.217 C39.757,69.443 40.676,69.173 41.031,69.059 C41.331,68.962 41.847,69.154 42.36,69.24 C42.968,69.466 43.1,69.41 43.684,69.622 C43.863,69.757 44.048,69.884 44.219,70.03 C44.382,70.199 44.399,70.008 44.552,69.896 z M43.148,65.129 C43.822,64.941 44.466,65.246 45.115,65.287 C45.927,64.924 46.649,64.804 47.548,64.931 C47.988,64.994 48.211,65.122 48.59,64.895 C48.938,64.641 49.159,64.198 49.369,63.831 C49.982,62.612 50.231,61.532 50.797,60.123 C51.348,58.319 51.446,56.278 51.748,54.463 C51.96,53.088 51.708,51.616 51.748,50.227 C51.777,49.255 51.78,48.36 51.587,47.399 C51.376,46.4 51.44,45.421 51.372,44.428 C51.218,43.327 51.384,42.224 51.559,41.136 C51.705,40.162 51.564,39.282 50.905,38.54 C50.879,38.517 50.854,38.502 50.849,38.508 C50.843,38.513 50.82,38.589 50.796,38.676 C50.773,38.762 50.743,38.863 50.73,38.899 C50.716,38.936 50.656,39.122 50.597,39.314 C50.538,39.506 50.467,39.729 50.44,39.81 C50.389,39.959 50.302,40.269 50.255,40.464 C50.189,40.741 50.066,41.051 49.87,41.44 C49.324,42.062 49.168,43.207 48.588,43.772 C48.043,43.771 47.728,44.061 47.121,44.087 C46.666,44.108 46.213,44.163 45.762,44.233 C45.752,44.239 45.73,44.242 45.712,44.239 C45.09,44.341 44.456,44.391 43.828,44.446 C43.025,44.525 42.222,44.59 41.417,44.637 C39.695,44.836 38.11,44.673 36.408,44.446 C35.574,44.389 34.748,44.233 33.921,44.139 C32.63,43.948 31.475,43.325 30.314,42.766 C29.958,42.559 30,42.421 29.886,42.108 C29.53,41.494 29.306,40.807 29.116,40.117 L28.986,37.695 C28.834,38.236 28.353,38.531 28.069,38.97 C27.816,39.332 27.596,39.706 27.414,40.11 C26.661,42.201 26.939,44.569 26.828,46.789 C26.635,48.523 26.48,50.144 25.998,51.831 C25.697,53.698 25.499,54.456 25.64,56.035 C25.74,57.341 25.711,57.925 25.874,59.225 C25.943,60.181 26.33,60.901 26.487,61.829 C26.62,62.345 27.065,62.833 27.313,63.339 C27.423,63.533 27.65,63.691 27.673,63.924 C28.283,64.394 29.463,64.089 30.245,64.191 C30.526,64.237 30.611,64.258 30.968,64.375 C31.854,64.621 32.628,64.106 33.554,64.197 C34.053,64.213 34.528,64.553 35.006,64.608 C35.332,64.651 35.569,64.372 35.888,64.432 C36.145,64.552 36.677,63.793 36.813,63.596 C37.301,63.268 37.183,62.801 37.422,62.381 C37.952,62.701 38.629,63.019 39.521,62.567 C40.103,63.095 39.824,63.851 40.269,64.383 C40.48,64.775 40.871,65.078 41.288,65.226 C41.899,65.47 42.536,65.261 43.148,65.129 L43.148,65.129 z M50.804,62.923 C51.235,62.409 51.735,61.961 52.127,61.414 C52.909,60.405 53.201,59.143 53.688,57.985 C53.846,57.66 54.21,57.029 54.298,56.929 C54.439,56.701 54.046,56.197 53.934,55.929 C53.529,55.09 53.291,54.295 53.116,53.376 C53.085,52.338 52.86,51.294 52.475,50.328 C52.305,51.574 52.619,52.971 52.474,54.254 C52.342,55.251 52.149,56.34 52.118,57.346 C52.065,58.553 51.687,59.583 51.363,60.747 C51.112,61.511 50.875,62.28 50.56,63.021 C50.447,63.291 50.36,63.57 50.234,63.835 C50.177,63.942 50.272,63.84 50.383,63.674 C50.534,63.43 50.646,63.164 50.804,62.923 L50.804,62.923 z M26.481,63.367 C25.859,62.652 25.654,61.623 25.438,60.73 C25.096,58.378 24.391,56.225 25.217,53.237 C25.021,53.707 24.83,54.179 24.632,54.649 C24.331,55.228 24.093,55.848 23.64,56.329 C23.404,56.507 23.27,56.816 23.118,57.068 C23.09,57.706 23.557,58.836 23.788,59.453 C23.959,59.792 24.007,59.865 24.149,60.335 C24.24,60.67 24.463,60.934 24.671,61.204 C25.02,61.647 25.364,62.08 25.636,62.577 C25.556,62.955 27.014,64.049 26.481,63.367 z M21.077,58.255 C21.112,58.217 21.337,57.989 21.578,57.748 C22,57.379 22.264,56.966 22.552,56.504 C22.873,56.018 23.137,55.495 23.479,55.023 C23.937,54.414 24.109,53.656 24.459,52.993 C24.482,52.962 24.618,52.649 24.671,52.505 C25.058,51.637 25.183,50.677 25.533,49.797 C25.54,49.791 25.54,49.801 25.534,49.818 C25.59,49.595 25.739,49.066 25.808,48.75 C26.194,47.869 26.094,46.546 26.149,45.586 C26.14,45.581 26.132,45.567 26.132,45.555 C26.133,45.539 26.136,45.54 26.146,45.556 C26.154,45.568 26.169,45.571 26.182,45.562 C26.157,45.158 26.162,44.687 26.22,44.272 C26.255,44.297 26.229,44.238 26.219,44.228 C26.27,43.959 26.253,43.04 26.231,42.694 C26.056,41.478 26.407,40.317 26.934,39.235 C27.505,38.281 28.22,37.426 28.85,36.511 C29.245,35.871 29.283,34.879 29.409,34.104 C28.961,32.839 31.37,31.161 31.129,30.418 C31.122,30.418 31.116,30.406 31.116,30.391 C30.869,30.137 30.603,29.88 30.351,29.621 C29.791,29.057 29.295,28.419 28.611,27.996 C28.214,28.505 27.733,28.948 27.334,29.459 C27.032,29.81 26.759,30.186 26.457,30.537 C25.775,31.359 25.076,32.089 24.503,32.997 C23.979,33.729 23.566,34.529 23.09,35.291 C22.319,36.394 21.69,37.597 21.208,38.852 C20.907,39.83 20.751,40.825 20.561,41.823 C20.525,42.769 20.452,43.72 20.504,44.667 C20.969,46.529 20.559,48.341 20.914,50.191 C21.082,50.775 21.279,51.37 21.463,51.956 C21.774,52.872 21.892,53.66 21.821,54.631 C21.735,55.212 21.603,55.787 21.458,56.356 C21.344,56.802 21.244,57.254 21.121,57.698 C21.062,57.902 20.941,58.355 20.94,58.376 C20.939,58.396 20.997,58.345 21.077,58.255 L21.077,58.255 z M56.287,54.003 C56.523,53.206 56.826,52.43 57.115,51.651 C57.284,51.218 57.397,50.767 57.54,50.327 C57.698,49.843 57.807,49.344 57.906,48.846 C58.258,47.494 58.146,46.068 58.215,44.686 C58.022,42.539 57.471,40.438 57.202,38.307 C56.958,36.822 56.26,35.805 55.513,34.546 C54.892,33.402 54.205,32.308 53.393,31.289 C52.731,30.353 52.175,29.618 51.477,28.771 C51.148,29.329 50.526,30.023 50.061,30.417 C49.801,30.628 49.627,30.772 49.627,30.821 C50.476,31.758 50.736,32.565 51.109,33.765 C51.369,34.948 51.394,36.032 51.145,37.226 C51.072,37.516 51.016,37.774 51.019,37.801 C51.023,37.834 51.049,37.867 51.103,37.907 C51.396,38.124 51.522,38.244 51.758,38.538 C52.104,38.927 52.276,39.267 52.34,39.784 C52.41,40.582 52.411,40.606 52.394,40.849 C52.368,41.223 52.292,41.852 52.224,42.259 C52.062,42.945 52.091,43.671 52.184,44.367 C52.173,45.839 52.32,47.2 52.662,48.619 C52.801,49.259 53.141,49.83 53.349,50.445 C53.747,51.346 53.842,52.304 53.919,53.358 C53.925,53.373 53.936,53.385 53.945,53.385 C54.177,54.365 54.282,55.32 54.823,56.19 C55.029,56.616 55.457,57.279 56.051,57.784 L56.92,58.503 C56.111,57.889 55.497,55.298 56.287,54.003 z M40.099,43.922 C40.857,43.633 44.015,44.321 44.202,43.323 C44.717,42.21 45.034,41.051 45.258,39.849 C45.537,38.694 45.667,37.83 45.551,36.645 C45.725,35.54 45.6,34.412 45.389,33.3 C45.336,33.03 45.111,32.341 44.873,31.716 C44.752,31.26 44.454,30.888 44.28,30.457 C43.937,30.133 42.665,30.203 42.111,30.132 C41.109,29.971 40.1,29.851 39.097,29.697 L36.048,29.899 C35.96,30.098 35.855,30.284 35.735,30.468 C35.339,31.04 35.002,31.636 34.75,32.283 C33.698,34.523 33.536,36.791 33.66,39.218 C33.721,40.066 33.858,40.895 34.071,41.719 C34.019,42.333 34.715,42.886 34.758,43.407 C34.741,43.614 35.233,43.562 35.385,43.575 C36.968,43.798 38.502,43.998 40.099,43.922 L40.099,43.922 z M38.283,42.164 C37.283,41.811 38.338,40.056 37.6,39.915 C35.89,39.612 35.649,39.993 35.096,38.542 C34.611,36.115 35.851,36.322 37.581,36.092 C38.428,36.156 37.722,33.963 38.027,33.59 C38.392,33.143 39.785,33.37 40.809,33.437 C41.771,33.853 40.933,35.154 41.612,35.972 C42.452,35.835 42.871,36.235 43.693,36.28 C44.416,36.739 44.306,38.235 44.042,39.031 C43.376,39.674 42.284,39.445 41.453,39.794 C41.068,40.451 41.631,41.018 41.08,41.866 C39.924,42.347 39.698,42.317 38.283,42.164 z M40.513,41.674 C41.046,41.081 40.663,39.887 40.946,39.11 C41.742,39.308 42.762,38.919 43.51,38.883 C43.795,38.661 43.592,37.302 43.587,36.823 C42.722,36.534 41.911,36.673 41.013,36.405 C40.653,35.792 40.793,35.039 40.792,34.293 C40.614,33.713 39,33.94 38.391,33.944 C38.315,34.386 38.755,36.754 38.02,36.76 C36.946,36.464 36.409,36.858 35.812,36.939 C35.185,37.175 35.647,38.002 35.619,38.709 C36.062,39.542 37.071,39.372 37.84,39.287 C38.792,39.596 37.998,40.959 38.407,41.659 C39.224,41.949 39.723,41.836 40.513,41.674 z M45.614,43.139 C46.264,42.365 46.42,41.162 46.69,40.246 C46.948,38.874 47.116,37.426 47.058,35.955 C47.066,34.844 46.938,33.604 46.521,32.561 C46.304,31.883 46.086,31.223 45.839,30.553 C45.8,30.38 45.208,30.399 45.126,30.482 C45.266,30.763 45.427,31.029 45.534,31.326 C45.826,32.075 45.921,32.836 46.081,33.624 C46.255,34.714 46.19,35.827 46.245,36.927 C46.184,38.317 46.1,39.33 45.877,40.503 C45.616,41.419 45.377,42.392 45.065,43.4 C45.034,43.427 45.044,43.469 45.018,43.498 C44.982,43.52 45.046,43.531 45.169,43.525 C45.331,43.512 45.555,43.295 45.614,43.139 z M48.097,43.021 C48.142,42.988 48.28,42.759 48.28,42.717 C48.812,41.911 49.274,40.988 49.584,40.072 C49.853,39.106 50.132,38.167 50.361,37.188 C50.614,36.16 50.606,36.224 50.581,35.483 C50.57,35.166 50.558,34.904 50.554,34.899 C50.549,34.895 50.554,34.88 50.565,34.867 C50.578,34.37 50.288,33.5 50.133,33.006 C49.944,32.474 49.507,31.588 49.049,31.272 C48.613,31.133 48.159,31.017 47.741,30.822 C47.432,30.786 46.949,30.573 46.668,30.543 C46.323,30.557 46.854,31.603 46.93,31.81 C47.435,33.166 47.732,34.578 47.704,36.029 C47.65,36.586 47.729,37.207 47.656,37.762 C47.588,38.499 47.425,39.177 47.365,39.915 C47.076,41.655 46.684,42.317 46.213,43.352 C46.472,43.65 47.744,43.147 48.097,43.021 z M33.915,43.256 C33.924,43.203 33.921,43.192 33.901,43.2 C33.531,42.571 33.614,42.19 33.251,41.188 C33.156,40.158 32.996,39.278 32.984,38.315 C33.018,36.082 33.25,34.945 33.726,33.015 C33.922,32.419 34.104,31.916 34.352,31.341 C34.564,30.949 34.663,30.464 34.916,30.097 C34.944,30.059 34.961,30.022 34.954,30.015 C34.947,30.008 34.621,30.006 34.487,30.047 C33.739,30.156 33.836,30.641 33.469,31.551 C33.045,32.25 32.903,33.04 32.658,33.816 C32.389,34.601 32.305,35.433 32.162,36.247 C31.979,37.027 31.972,37.839 32.028,38.634 C32.114,39.5 32.284,40.35 32.517,41.187 C32.635,41.947 33.136,42.532 33.407,43.206 C33.502,43.321 33.878,43.494 33.915,43.256 z M32.27,42.788 C31.996,41.957 31.909,41.538 31.679,40.564 C31.223,38.904 31.253,37.327 31.588,35.649 C31.714,34.628 31.998,33.576 32.343,32.609 C32.593,31.924 32.806,31.273 33.12,30.616 C33.12,30.59 33.021,30.636 32.771,30.779 C32.403,30.973 32.045,31.188 31.679,31.387 C29.65,32.739 29.823,36.082 29.72,38.233 C29.664,39.369 30.138,40.543 30.416,41.553 C30.743,42.329 31.525,42.701 32.318,42.897 C32.307,42.858 32.288,42.823 32.27,42.788 z M49.375,30.016 C49.768,29.721 50.136,29.398 50.707,28.683 C50.954,28.227 51.281,28.265 51.245,27.795 C51.454,27.349 50.747,26.743 50.544,26.916 C50.001,28.327 48.583,28.926 48.241,30.167 C48.431,30.209 48.527,30.243 48.681,30.324 C48.797,30.361 49.217,30.148 49.375,30.016 z M32.558,29.786 C31.958,29.228 31.496,28.527 31.03,27.857 C30.649,27.17 30.089,26.692 29.427,26.288 C29.072,26.537 28.825,26.93 28.746,27.354 C29.453,27.903 30.17,28.565 30.813,29.228 C31.141,29.564 31.471,29.899 31.784,30.248 C31.986,30.304 32.893,30.037 32.558,29.786 z M47.556,29.775 C47.715,29.519 47.943,29.327 48.166,29.124 L48.301,28.991 C48.266,28.913 48.228,28.837 48.175,28.77 C47.97,27.944 47.726,27.262 47.4,26.474 C47.154,25.731 46.837,24.985 46.761,24.2 C46.65,23.555 46.619,22.744 46.844,22.016 C46.907,21.784 47.008,21.154 47.139,20.957 C46.681,21.099 46.073,21.616 45.642,21.838 C44.339,22.389 43.404,23.373 42.251,24.171 C41.547,24.504 40.874,24.529 40.046,24.538 C39.523,24.398 39.119,24.249 38.65,23.987 C38.06,23.356 37.791,23.212 37.409,22.462 C37.138,21.87 36.494,21.148 36.146,20.602 C35.717,20.047 34.985,18.992 34.649,18.644 C34.805,19.24 35.246,20.716 34.934,22.037 C34.698,22.953 34.037,23.724 33.657,24.571 C33.345,25.117 33.108,25.786 32.76,26.311 C32.343,26.697 32.004,27.293 31.799,27.874 C32.195,28.408 32.616,29.02 33.126,29.519 L33.279,29.657 C33.627,29.544 33.981,29.451 34.331,29.347 C34.73,29.227 35.315,29.097 35.594,29.067 C35.724,29.044 36.134,29.152 36.021,28.954 C35.971,28.877 35.889,28.523 35.932,28.55 C35.976,28.393 36.225,27.995 36.153,27.85 C35.939,27.553 35.377,26.857 35.913,26.634 C36.234,26.312 36.942,26.441 37.315,26.601 C37.708,26.846 38.167,26.959 38.427,27.35 C38.489,27.45 38.507,27.556 38.563,27.565 C38.758,27.524 38.885,27.173 39.351,27.19 C39.8,27.278 39.749,27.615 40.169,27.577 C40.349,27.574 40.613,27.308 40.69,27.254 C40.947,27.022 41.176,26.764 41.467,26.573 C41.777,26.403 42.134,26.282 42.489,26.333 C42.78,26.429 42.901,26.773 43.014,27.052 C42.906,27.518 42.608,27.72 42.652,28.113 C42.698,28.518 43.167,28.807 43.201,29.187 C43.233,29.548 43.119,29.549 43.529,29.53 C44.019,29.694 45.073,29.612 45.282,29.617 C45.953,29.594 46.621,29.679 47.241,29.942 C47.605,30.099 47.402,29.965 47.556,29.775 z M42.773,29.32 C42.739,28.641 42.273,28.721 42.099,28.193 C41.98,27.833 42.677,27.161 42.456,27.014 C42.209,26.849 41.501,27.41 41.362,27.494 C40.852,27.793 41.133,27.881 40.667,28.066 C40.465,28.074 40.474,28.421 40.363,28.639 C40.207,29.078 41.322,29.234 41.658,29.276 C41.743,29.261 42.863,29.464 42.773,29.32 z M38.337,28.837 C38.343,28.82 38.359,28.787 38.373,28.763 C38.462,28.528 38.298,28.263 38.243,28.036 C38.23,27.875 37.887,27.509 37.769,27.386 C37.457,27.113 37.134,26.938 36.724,26.863 C36.462,26.828 36.359,26.972 36.217,26.955 C36.139,27.211 36.697,27.756 36.822,27.975 C37.027,28.293 36.62,28.484 36.561,28.866 C36.721,29.189 37.96,28.917 38.337,28.837 L38.337,28.837 z M49.182,28.092 C49.55,27.637 49.789,27.086 49.998,26.543 C49.444,25.683 49.295,24.523 48.974,23.563 C48.665,22.006 49.066,20.807 49.717,19.409 C50.915,16.618 49.216,13.23 47.449,11.067 C45.237,9.04 42.024,8.684 39.08,8.969 C36.982,9.708 34.641,10.932 33.621,13.009 C32.098,14.885 32.211,16.09 32.495,18.348 C32.502,19.507 32.707,20.927 32.473,21.932 C31.736,23.517 29.799,24.837 29.944,25.966 C30.457,26.253 30.836,26.702 31.255,27.102 C31.732,26.795 31.888,26.526 32.378,25.794 C33.374,24.323 33.472,23.733 34.303,22.376 C35.281,19.779 33.958,18.224 34.103,17.684 C34.387,17.827 34.571,17.572 34.786,18.047 C34.766,17.649 34.906,16.077 35.393,14.862 C35.547,14.245 36.062,13.808 36.561,13.464 C36.609,13.439 36.707,13.375 36.779,13.321 C37.088,13.076 37.455,12.978 37.842,12.976 C38.207,12.975 38.539,13.036 38.759,13.142 C39.697,13.577 40.038,14.651 40.372,15.571 C40.568,16.247 40.669,16.652 40.578,17.356 C40.604,17.719 41.995,17.803 41.9,17.647 C41.702,17.228 42.144,16.378 42.292,16.007 C42.807,14.68 43.78,13.806 45.272,13.753 C45.993,13.948 46.531,14.632 46.791,14.796 C47.127,15.516 47.263,16.191 47.287,16.981 C47.286,17.383 47.223,17.989 47.154,18.247 C46.893,18.949 47.26,19.405 47.339,19.994 C47.417,20.096 47.486,20.16 47.622,20.178 C48.502,19.54 47.827,20.833 47.827,21.119 C47.369,22.195 47.211,23.146 47.323,24.311 C47.462,25.162 47.785,25.958 48.088,26.759 C48.283,27.294 48.587,27.778 48.741,28.327 C48.757,28.399 48.774,28.469 48.779,28.483 C48.788,28.514 48.993,28.316 49.182,28.092 L49.182,28.092 L49.182,28.092 z M39.585,28.642 C39.89,28.356 39.873,28.077 39.725,27.889 C39.601,27.733 39.341,27.561 39.096,27.76 C38.635,28.01 39.219,28.832 39.585,28.642 z M43.128,23.001 C44.139,22.241 44.536,21.95 45.324,21.511 C45.584,21.366 45.865,21.12 46.186,20.897 C46.389,20.736 46.984,20.347 47.201,20.212 C46.817,20.034 44.9,19.03 43.996,18.693 C42.957,18.292 42.19,17.824 41.059,18.021 C39.637,17.542 37.808,17.692 36.534,18.452 C35.999,18.606 35.508,18.587 35.096,18.559 C35.375,18.845 35.792,19.594 36.085,19.893 C36.896,20.766 37.479,21.81 38.026,22.858 C38.612,23.527 39.798,24.399 40.752,24.157 L40.752,24.157 L40.752,24.157 L40.752,24.157 L40.752,24.157 L40.752,24.157 L40.752,24.157 L40.752,24.157 L40.752,24.157 L40.752,24.157 L40.752,24.157 L40.752,24.157 L40.752,24.157 L40.752,24.157 L40.752,24.157 L40.752,24.157 L40.858,24.114 C42.094,23.99 42.287,23.651 43.128,23.001 z M46.666,19.53 C46.645,18.78 46.844,18.067 46.881,16.957 C46.835,15.798 46.626,13.598 43.867,14.774 C43.102,15.1 42.537,16.499 42.414,17.358 C42.364,17.581 42.434,17.834 42.575,17.854 C42.784,17.882 43.09,18.083 43.295,18.135 C43.225,17.412 43.22,16.478 44.048,16.021 C44.591,15.915 45.084,15.857 45.551,16.301 C46.347,17.216 45.532,18.437 45.481,18.721 C45.6,19.051 46.669,19.654 46.666,19.53 z M36.813,17.941 C36.491,17.44 35.915,16.272 36.82,15.55 C37.382,15.102 37.746,15.224 38.048,15.336 C39.189,15.756 39.155,17.017 39.08,17.403 C39.225,17.465 39.704,17.452 39.863,17.472 C40.363,17.063 39.759,15.417 39.541,14.895 C39.088,13.89 38.345,13.43 37.278,13.864 C36.176,14.51 35.971,15.43 35.662,16.6 C35.525,17.13 35.411,17.668 35.172,18.163 C35.425,18.521 36.484,18.067 36.813,17.941 z M35.158,18.168 C35.158,18.159 35.155,18.151 35.151,18.151 C35.147,18.151 35.138,18.159 35.132,18.168 C35.133,18.195 35.147,18.184 35.158,18.168 z" fill="#000000" id="path2994"/>
    <g id="path3885">
      <path d="M43.308,28.021 C45.169,28.57 46.926,27.596 48.641,28.021 L48.821,28.62 C47.247,28.946 45.255,29.064 43.368,28.92 C42.75,28.72 42.982,28.378 43.308,28.021 z" fill="#000080"/>
      <path d="M43.308,28.021 C45.169,28.57 46.926,27.596 48.641,28.021 L48.821,28.62 C47.247,28.946 45.255,29.064 43.368,28.92 C42.75,28.72 42.982,28.378 43.308,28.021 z" fill-opacity="0" stroke="#000000" stroke-width="0.491" stroke-linecap="round"/>
    </g>
    <g id="path3887">
      <path d="M36.537,28.021 C37.059,28.542 36.866,28.705 36.776,28.92 C35.475,28.683 34.595,28.586 32.701,28.261 C32.399,27.986 32.103,28.009 32.582,27.422 C34.465,27.542 35.227,27.901 36.537,28.021 z" fill="#000080"/>
      <path d="M36.537,28.021 C37.059,28.542 36.866,28.705 36.776,28.92 C35.475,28.683 34.595,28.586 32.701,28.261 C32.399,27.986 32.103,28.009 32.582,27.422 C34.465,27.542 35.227,27.901 36.537,28.021 z" fill-opacity="0" stroke="#000000" stroke-width="0.427" stroke-linecap="round" stroke-linejoin="round"/>
    </g>
    <path d="M39.515,19.1 C39.535,19.165 39.555,19.229 39.575,19.294 C39.579,19.307 39.6,19.329 39.587,19.332 C39.574,19.336 39.588,19.29 39.575,19.294 C39.557,19.299 39.562,19.331 39.549,19.344 C39.539,19.353 39.523,19.352 39.511,19.356" fill-opacity="0" stroke="#743F15" stroke-width="0.261" stroke-linecap="round" id="path3901" opacity="0.84"/>
    <path d="M42.957,19.695 C42.964,19.762 42.971,19.829 42.978,19.896 C42.979,19.91 42.995,19.935 42.982,19.936 C42.969,19.938 42.991,19.895 42.978,19.896 C42.959,19.898 42.958,19.93 42.943,19.941 C42.931,19.948 42.916,19.943 42.903,19.945" fill-opacity="0" stroke="#743F15" stroke-width="0.261" stroke-linecap="round" id="path3901-3" opacity="0.84"/>
    <path d="M41.399,19.248 C40.784,20.562 40.765,21.44 40.678,23.104" fill-opacity="0" stroke="#743F15" stroke-width="0.263" stroke-linecap="round" id="path3959" opacity="0.84"/>
    <path d="M37.351,16.026 C37.324,16.204 37.185,16.354 37.04,16.362 C36.894,16.371 36.795,16.235 36.818,16.057 C36.84,15.879 36.976,15.725 37.122,15.711 C37.268,15.697 37.371,15.828 37.353,16.006" fill="#FFFFFF" id="path3996"/>
    <path d="M44.3,16.705 C44.273,16.883 44.134,17.032 43.988,17.04 C43.843,17.048 43.744,16.912 43.767,16.734 C43.79,16.557 43.925,16.403 44.072,16.389 C44.218,16.376 44.321,16.507 44.303,16.684" fill="#FFFFFF" id="path3996-2"/>
    <path d="M38.345,33.84 C38.165,34.702 38.523,35.731 38.105,36.536 C37.569,36.675 36.947,36.461 36.393,36.66 C35.794,36.681 35.227,37.15 35.375,37.798 C35.327,38.533 35.677,39.427 36.536,39.427 C37.028,39.575 37.798,39.247 38.116,39.753 C38.334,40.412 37.961,41.259 38.42,41.809 C39.157,41.886 40.103,42.109 40.712,41.566 C41.145,40.894 40.753,39.971 41.09,39.293 C41.929,39.187 42.932,39.301 43.655,38.806 C43.921,38.182 43.802,37.4 43.622,36.768 C42.834,36.402 41.844,36.545 41.067,36.195 C40.817,35.501 41.162,34.583 40.67,33.986 C39.976,33.676 39.064,33.762 38.345,33.84 z" fill="#AA0000" id="path3087"/>
    <path d="M42.3,26.862 C41.499,27.214 40.605,27.744 40.236,28.57 C40.246,29.266 41.198,29.294 41.704,29.413 C42.072,29.468 43.165,29.932 42.802,28.974 C42.559,28.548 41.976,28.129 42.434,27.607 C42.544,27.386 42.771,26.823 42.3,26.862 z" fill="#2E56D7" id="path3879"/>
    <path d="M50.622,26.776 C50.154,27.027 50.042,27.667 49.633,28.004 C49.171,28.718 48.26,29.274 48.142,30.158 C48.492,30.722 49.335,30.212 49.715,29.915 C50.373,29.281 51.222,28.606 51.382,27.664 C51.426,27.213 51.068,26.784 50.622,26.776 z" fill="#C87137" id="path3095"/>
    <path d="M34.543,29.944 C33.932,29.992 33.555,30.497 33.475,31.064 C32.309,34.092 31.351,37.462 32.257,40.69 C32.549,41.635 32.813,42.705 33.528,43.416 C34.039,43.657 34.021,42.889 33.817,42.637 C32.589,38.693 33.142,34.325 34.829,30.609 C35.083,30.28 35.069,29.846 34.543,29.944 z" fill="#6C6C6C" id="path3089"/>
    <path d="M45.307,30.304 C44.7,30.46 45.341,31.139 45.416,31.48 C46.308,34.069 46.136,36.929 45.869,39.63 C45.703,40.958 45.161,42.23 44.933,43.536 C45.303,43.958 45.707,43.214 45.903,42.933 C47.179,40.396 47.203,37.435 47.094,34.652 C46.992,33.22 46.449,31.846 45.903,30.536 C45.79,30.315 45.534,30.267 45.307,30.304 z" fill="#6C6C6C" id="path3091"/>
    <path d="M39.24,27.592 C38.674,27.631 38.696,28.318 39.094,28.577 C39.613,29.33 40.382,27.949 39.659,27.656 C39.532,27.588 39.381,27.571 39.24,27.592 z" fill="#000080" id="path3883"/>
    <path d="M36.521,26.746 C35.808,26.969 36.453,27.745 36.704,28.094 C36.744,28.441 36.056,29.052 36.685,29.087 C37.256,29.001 38.235,29.302 38.528,28.645 C38.488,27.678 37.471,26.766 36.521,26.746 z" fill="#2E56D7" id="path3881"/>
    <path d="M28.726,36.03 L26.569,39.566 C26.332,41.55 25.862,43.067 25.909,45.618 C25.83,47.136 25.67,48.495 25.43,49.693 C25.185,50.942 25.15,51.411 24.591,52.569 C24.023,53.479 23.516,54.75 22.973,55.626 L21.954,57.363 L21.175,58.142 L22.074,56.704 L23.632,52.629 C24.162,51.551 24.746,50.466 24.831,48.794 C24.831,47.494 24.766,46.328 25.07,44.42 C25.198,42.858 24.967,41.475 25.67,39.626 C26.988,36.95 29.472,34.767 28.726,36.03 z" fill="#FFF6F3" id="path4176"/>
    <path d="M51.257,37.828 C51.442,38.344 51.624,38.858 52.276,39.686 C51.923,41.583 51.77,43.48 52.096,45.378 L52.995,49.633 C53.246,50.52 53.079,51.108 53.594,52.09 C53.75,53.368 53.71,54.048 54.254,55.206 C54.658,56.422 55.367,57.486 56.411,58.382 L57.01,58.622 L55.931,57.184 C55.624,56.441 55.13,55.737 54.673,54.547 C54.198,52.603 54.162,51.239 53.834,49.573 C53.57,47.849 53.177,48.046 53.055,44.18 C52.849,42.994 52.954,42.269 53.175,39.806 C52.604,38.874 51.988,38.123 51.257,37.828 z" fill="#FFF6F3" id="path4178"/>
    <path d="M41.151,28.74 C42.129,28.021 42.654,28.222 42.674,28.222" fill-opacity="0" stroke="#2231C3" stroke-width="0.125" id="path4192"/>
    <path d="M41.152,29.167 C41.635,29.037 42.228,28.979 42.655,29.143" fill-opacity="0" stroke="#2231C3" stroke-width="0.125" id="path4196"/>
    <path d="M37.167,27.922 C37.607,28.042 38.189,28.146 38.394,28.5" fill-opacity="0" stroke="#2231C3" stroke-width="0.125" id="path4198"/>
    <path d="M37.411,28.994 C37.729,28.748 38.176,28.787 38.574,28.86" fill-opacity="0" stroke="#2231C3" stroke-width="0.125" id="path4200"/>
  </g>
</svg>
