<?xml version="1.0" encoding="UTF-8"?>
<!DOCTYPE svg PUBLIC "-//W3C//DTD SVG 1.1//EN" "http://www.w3.org/Graphics/SVG/1.1/DTD/svg11.dtd">
<svg version="1.1" xmlns="http://www.w3.org/2000/svg" xmlns:xlink="http://www.w3.org/1999/xlink" x="0" y="0" width="1000" height="1000" viewBox="0, 0, 1000, 1000">
  <g id="Layer_2">
    <path d="M998,498.6 C998,773.859 774.859,997 499.6,997 C224.341,997 1.2,773.859 1.2,498.6 C1.2,223.341 224.341,0.2 499.6,0.2 C774.859,0.2 998,223.341 998,498.6 z" fill="#5596E6"/>
  </g>
  <g id="Layer_3">
    <path d="M421.866,835.85 C421.588,835.565 421.152,835.188 420.897,835.012 C415.171,836.697 410.019,831.211 406.041,827.214 C400.599,825.589 393.766,825.519 387.862,824.662 C378.191,822.629 368.775,828.897 361.377,821.977 C361.303,818.088 366.69,813.48 368.851,811.34 C372.528,808.919 375.389,806.447 379.255,804.348 C384.664,801.551 389.121,798.461 394.749,796.141 C399.642,794.447 403.918,791.434 408.411,788.915 C409.231,782.26 409.747,781.364 410.335,774.189 C409.174,773.353 402.204,772.267 398.357,771.88 C392.634,771.182 386.933,772.117 381.215,772.172 C373.17,774.988 371.202,770.959 364.824,767.205 C359.24,765.636 356.773,763.774 352.64,759.467 C349.425,755.727 347.158,751.321 344.864,746.988 C339.085,737.67 332.702,731.533 328.359,720.858 C326.19,714.73 323.513,708.918 322.061,702.557 C321.547,700.069 319.978,694.933 319.634,694.615 C319.557,694.543 318.644,695.419 317.607,696.562 C313.088,701.668 307.99,706.129 303.204,710.857 C299.748,714.459 295.403,716.056 290.46,715.281 C290.39,715.099 290.186,715.05 289.812,715.125 C289.415,715.204 289.235,715.152 289.151,714.933 C289.087,714.767 288.863,714.632 288.652,714.632 C287.625,714.109 286.591,712.607 286.383,711.471 C286.23,710.977 286.134,710.849 286.335,710.284 C290.065,706.744 290.718,702.912 292.514,698.218 C296.027,687.362 298.297,676.134 300.816,665.012 C302.151,658.753 302.72,651.594 302.16,648.107 C300.608,635.621 295.214,624.146 292.025,612.09 C289.231,603.045 289.133,593.638 289.271,584.262 C290.347,570.75 288.644,556.571 287.588,542.98 C287.673,534.877 290.263,525.904 289.023,517.851 C289.837,511.632 291.544,503.581 293.479,496.889 C296.436,482.526 301.846,471.201 309.691,458.758 C318.47,444.775 326.848,430.559 335.867,416.706 C339.773,410.559 345.149,405.533 349.773,399.929 C357.847,389.671 365.547,379.709 374.616,370.312 C378.389,367.839 376.542,366.666 377.026,363.247 C377.766,359.34 379.669,355.885 381.827,352.587 C383.51,350.213 386.504,347.58 388.368,346.834 C401.545,328.944 418.363,318.172 420.171,303.467 C422.527,284.297 421.75,290.313 420.307,270.871 C419.192,257.476 416.832,245.93 421.266,232.828 C425.346,217.488 426.833,215.211 435.684,202.638 C453.158,182.299 460.641,174.143 482.291,164.093 C505.77,159.623 514.932,158.122 536.463,160.309 C565.454,169.65 577.962,174.871 597.11,192.218 C606.802,203.607 615.316,221.195 621.331,240.658 C622.614,263.299 622.346,269.882 612.123,296.444 C606.794,312.441 609.127,323.274 613.899,337.672 C617.597,345.678 618.85,354.683 626.112,356.134 C630.96,357.104 633.678,362.591 633.949,365.417 C634.762,371.103 636.323,375.542 639.933,379.84 C643.333,383.888 646.781,387.9 649.879,392.189 C658.595,403.511 667.098,413.927 674.376,426.346 C678.089,433.145 682.15,439.526 686.205,446.062 C689.339,450.141 691.567,454.727 693.948,459.244 C698.735,467.465 700.273,476.73 702.582,485.777 C705.092,499.717 707.84,513.865 710.132,527.85 L712.87,570.379 C714.013,591.106 707.451,613.583 700.111,632.789 C695.886,643.199 692.57,653.944 688.926,664.566 C683.929,679.789 689.882,691.941 699.15,704.05 C700.653,705.78 700.805,706.331 700.138,707.639 C697.828,710.788 693.075,710.685 689.774,709.354 C686.252,708.227 683.453,705.94 680.693,703.605 C675.475,700.472 671.512,695.325 667.535,690.672 C663.209,697.561 659.962,705.011 657.49,712.745 C654.58,722.749 649.871,730.84 644.596,739.583 C640.237,747.428 631.872,752.181 627.978,760.288 C626.282,763.96 624.005,767.456 621.176,770.354 C617.733,773.517 613.09,774.113 608.886,775.671 C605.287,781.613 600.462,782.263 593.628,781.905 C590.373,781.399 585.626,780.641 584.101,780.383 C576.456,778.431 572.898,782.636 566.559,784.438 C560.529,787.677 569.177,794.537 573.097,795.676 C581.644,800.066 589.787,802.599 599.005,805.605 C603.72,808.112 608.323,810.641 611.619,814.956 C612.979,817.037 614.213,819.094 614.954,821.462 C609.277,825.91 593.657,822.396 586.176,822.822 C579.936,824.045 573.946,827.187 567.544,827.526 C564.458,827.464 560.596,833.773 558.939,836.134 C557.424,838.515 555.719,838.612 553.301,836.456 C550.62,834.3 547.803,832.317 545.027,830.285 C541.051,826.836 536.216,826.165 531.179,825.48 C525.542,824.543 524.256,824.43 516.935,824.23 C508.801,824.007 507.03,824.067 504.913,824.64 C500.796,825.78 498.534,827.199 496.402,822.693 C495.276,819.989 495.742,818.568 498.168,817.305 C501.729,814.898 504.939,812.019 508.633,809.801 C512.823,806.876 517.171,804.335 521.804,802.155 C525.184,800.659 528.415,798.819 531.932,797.646 L543.287,792.002 L544.135,782.907 C540.854,783.578 537.58,784.29 534.292,784.932 C526.949,786.229 519.355,783.352 512.612,780.509 C509.283,776.349 506.125,772.063 503.586,767.365 C502.05,765.4 501.14,758.26 499.429,757.971 C491.966,754.568 490.855,756.232 483.3,757.2 C481.225,762.797 473.627,771.831 468.629,776.873 C463.676,779.965 458.15,777.085 452.333,775.963 C445.948,771.686 439.109,772.701 432.134,772.445 C433.936,779.423 431.431,782.315 430.999,789.445 C433.159,794.532 441.219,798.713 449.108,801.539 C457.563,805.291 467.556,810.785 471.249,816.899 C473.991,819.384 474.025,822.234 469.556,824.315 C466.946,824.808 463.681,823.971 460.987,823.627 C456.448,823.108 451.91,822.578 447.387,821.925 C443.159,821.251 436.161,822.024 436.161,823.166 C435.585,826.349 426.349,838.714 421.866,835.85 L421.866,835.85 z M429.98,819.512 C434.292,816.05 438.695,816.677 447.051,815.259 L463.889,819.267 C458.687,808.543 434.865,801.585 427.496,792.346 C426.363,785.654 426.139,785.855 427.496,779.251 C427.803,777.404 428.596,775.392 428.165,773.496 C422.943,774.827 420.852,775.59 415.468,775.157 C414.783,780.926 413.734,785.144 414.742,788.443 C416.39,793.501 408.417,799.498 404.652,801.087 C398.951,803.461 397.37,804.13 397.063,804.302 C394.441,805.107 391.892,806.178 389.341,807.202 C383.304,809.585 381.282,810.589 374.602,814.514 C372.376,815.822 370.186,819.384 370.356,819.556 C370.417,819.618 374.728,816.779 378.351,816.817 C383.495,816.454 388.497,817.287 393.523,818.07 C396.933,818.525 402.286,818.48 405.488,819.687 C405.698,819.834 406.308,819.955 406.844,819.955 C411.032,820.994 415.288,826.129 418.802,828.485 C424.237,833.939 427.463,823.784 429.98,819.512 z M556.564,826.046 C557.73,825.226 558.714,822.832 560.476,823.087 C561.446,820.271 571.627,817.958 573.818,817.349 C579.665,815.213 585.47,815.547 591.647,815.416 C594.916,815.356 598.413,814.753 598.617,814.841 C609.441,819.542 604.503,812.627 594.655,810.078 C591.124,809.164 584.19,806.702 583.554,806.702 C574.58,802.846 567.281,802.199 561.872,796.903 C557.516,794.131 561.557,786.748 558.657,784.083 C556.02,782.795 552.301,782.946 549.433,783.333 C550.872,786.102 550.346,788.286 549.732,791.274 C549.312,796.117 550.51,797.698 545.447,800.447 C538.397,804.382 530.769,807.075 523.501,810.546 C520.507,811.879 507.526,815.349 505.926,818.699 C504.65,821.14 514.605,818.22 518.444,816.98 C521.69,815.931 527.283,818.018 532.831,818.949 C539.419,821.388 540.846,820.78 547.169,823.081 C549.108,824.543 551.116,825.916 552.961,827.498 C554.733,829.323 554.908,827.255 556.564,826.046 z M541.367,774.43 C548.661,772.398 555.634,775.7 562.66,776.141 C571.454,772.209 579.274,770.919 589.006,772.288 C593.768,772.967 596.184,774.36 600.29,771.904 C604.052,769.148 606.45,764.356 608.724,760.378 C615.363,747.18 618.056,735.492 624.19,720.227 C630.155,700.697 631.211,678.599 634.484,658.949 C636.775,644.062 634.053,628.124 634.477,613.09 C634.798,602.566 634.827,592.87 632.74,582.464 C630.45,571.648 631.15,561.052 630.414,550.302 C628.745,538.377 630.545,526.434 632.43,514.657 C634.02,504.106 632.488,494.582 625.35,486.547 C625.077,486.295 624.805,486.139 624.745,486.2 C624.684,486.26 624.43,487.078 624.179,488.018 C623.928,488.957 623.602,490.047 623.454,490.44 C623.306,490.833 622.661,492.852 622.022,494.927 C621.383,497.003 620.615,499.422 620.316,500.304 C619.77,501.915 618.822,505.27 618.316,507.379 C617.597,510.377 616.273,513.731 614.147,517.945 C608.233,524.682 606.545,537.076 600.272,543.201 C594.37,543.187 590.953,546.321 584.384,546.603 C579.458,546.83 574.55,547.427 569.672,548.19 C569.566,548.257 569.321,548.285 569.128,548.253 C562.395,549.362 555.534,549.9 548.725,550.49 C540.039,551.35 531.341,552.051 522.627,552.563 C503.978,554.712 486.821,552.949 468.392,550.496 C459.362,549.881 450.418,548.185 441.467,547.173 C427.486,545.106 414.981,538.357 402.413,532.31 C398.555,530.063 399.006,528.569 397.778,525.183 C393.924,518.531 391.492,511.1 389.442,503.628 L388.033,477.398 C386.382,483.26 381.184,486.456 378.106,491.201 C375.361,495.121 372.981,499.178 371.01,503.547 C362.863,526.192 365.867,551.823 364.672,575.866 C362.574,594.64 360.905,612.187 355.684,630.456 C352.419,650.672 350.283,658.875 351.805,675.971 C352.89,690.11 352.573,696.431 354.343,710.51 C355.085,720.861 359.277,728.659 360.977,738.705 C362.418,744.295 367.234,749.579 369.92,755.058 C371.105,757.15 373.565,758.862 373.813,761.384 C380.416,766.475 393.202,763.168 401.658,764.277 C404.711,764.776 405.624,765.008 409.488,766.27 C419.085,768.935 427.468,763.354 437.488,764.338 C442.889,764.514 448.033,768.202 453.21,768.794 C456.739,769.253 459.31,766.235 462.763,766.884 C465.54,768.188 471.305,759.973 472.773,757.837 C478.055,754.279 476.779,749.233 479.366,744.686 C485.11,748.148 492.436,751.592 502.101,746.69 C508.401,752.412 505.375,760.594 510.193,766.358 C512.484,770.604 516.709,773.876 521.229,775.481 C527.847,778.126 534.739,775.868 541.367,774.43 L541.367,774.43 z M624.258,750.548 C628.927,744.98 634.335,740.138 638.588,734.212 C647.052,723.283 650.216,709.625 655.49,697.086 C657.193,693.563 661.136,686.734 662.093,685.648 C663.62,683.181 659.361,677.72 658.151,674.818 C653.769,665.737 651.186,657.137 649.295,647.183 C648.961,635.943 646.524,624.641 642.357,614.179 C640.507,627.665 643.908,642.796 642.344,656.685 C640.908,667.483 638.824,679.27 638.484,690.166 C637.908,703.23 633.826,714.382 630.309,726.99 C627.595,735.266 625.026,743.587 621.617,751.611 C620.392,754.529 619.451,757.552 618.093,760.419 C617.467,761.586 618.502,760.472 619.704,758.685 C621.341,756.038 622.552,753.155 624.258,750.548 L624.258,750.548 z M360.907,755.355 C354.177,747.614 351.955,736.477 349.621,726.802 C345.92,701.343 338.285,678.03 347.228,645.673 C345.107,650.765 343.03,655.877 340.888,660.96 C337.637,667.228 335.054,673.944 330.153,679.152 C327.6,681.086 326.148,684.428 324.493,687.157 C324.195,694.066 329.247,706.295 331.757,712.978 C333.605,716.651 334.127,717.439 335.657,722.529 C336.645,726.152 339.062,729.017 341.31,731.942 C345.091,736.733 348.816,741.419 351.761,746.8 C350.892,750.893 366.681,762.739 360.907,755.355 z M302.404,700.012 C302.775,699.598 305.214,697.127 307.823,694.522 C312.388,690.526 315.256,686.049 318.369,681.049 C321.843,675.786 324.699,670.12 328.402,665.012 C333.37,658.424 335.225,650.217 339.017,643.032 C339.269,642.698 340.744,639.305 341.314,637.749 C345.507,628.351 346.852,617.962 350.645,608.436 C350.718,608.37 350.723,608.47 350.656,608.657 C351.266,606.239 352.878,600.52 353.62,597.091 C357.8,587.561 356.722,573.233 357.311,562.841 C357.213,562.781 357.134,562.63 357.135,562.507 C357.138,562.334 357.172,562.334 357.282,562.509 C357.367,562.642 357.528,562.671 357.676,562.58 C357.404,558.201 357.451,553.108 358.085,548.612 C358.464,548.882 358.179,548.241 358.076,548.133 C358.628,545.221 358.441,535.272 358.204,531.53 C356.305,518.364 360.109,505.791 365.812,494.079 C371.997,483.74 379.741,474.484 386.565,464.579 C390.837,457.649 391.249,446.914 392.608,438.516 C387.762,424.823 413.844,406.651 411.24,398.613 C411.158,398.613 411.092,398.481 411.092,398.319 C408.422,395.571 405.545,392.787 402.816,389.984 C396.75,383.874 391.373,376.971 383.972,372.387 C379.675,377.902 374.466,382.692 370.151,388.229 C366.873,392.027 363.915,396.094 360.646,399.898 C353.266,408.803 345.694,416.705 339.497,426.535 C333.819,434.458 329.347,443.124 324.192,451.376 C315.847,463.311 309.035,476.339 303.818,489.928 C300.555,500.512 298.871,511.288 296.81,522.096 C296.427,532.338 295.629,542.629 296.196,552.884 C301.232,573.05 296.788,592.667 300.638,612.693 C302.453,619.023 304.591,625.459 306.584,631.806 C309.944,641.723 311.226,650.252 310.454,660.767 C309.529,667.062 308.095,673.283 306.521,679.445 C305.286,684.279 304.208,689.169 302.873,693.974 C302.234,696.189 300.927,701.094 300.917,701.313 C300.907,701.53 301.537,700.979 302.404,700.012 L302.404,700.012 z M683.626,653.975 C686.178,645.337 689.459,636.941 692.596,628.505 C694.421,623.82 695.64,618.936 697.195,614.166 C698.905,608.927 700.078,603.528 701.159,598.129 C704.969,583.491 703.758,568.056 704.505,553.093 C702.41,529.845 696.445,507.101 693.528,484.029 C690.888,467.946 683.333,456.937 675.246,443.303 C668.524,430.924 661.081,419.07 652.291,408.046 C645.127,397.903 639.105,389.952 631.547,380.783 C627.979,386.821 621.251,394.337 616.211,398.599 C613.399,400.889 611.517,402.447 611.517,402.976 C620.704,413.116 623.524,421.854 627.566,434.845 C630.382,447.657 630.647,459.391 627.947,472.326 C627.164,475.46 626.552,478.258 626.585,478.544 C626.627,478.903 626.907,479.257 627.494,479.691 C630.673,482.041 632.029,483.349 634.587,486.532 C638.331,490.734 640.197,494.419 640.888,500.021 C641.65,508.662 641.663,508.917 641.478,511.551 C641.194,515.595 640.373,522.41 639.639,526.812 C637.881,534.243 638.193,542.098 639.206,549.641 C639.086,565.578 640.67,580.31 644.381,595.676 C645.882,602.604 649.566,608.784 651.82,615.449 C656.13,625.201 657.154,635.569 657.987,646.984 C658.049,647.145 658.175,647.277 658.268,647.277 C660.775,657.891 661.918,668.229 667.771,677.644 C670.005,682.265 674.639,689.442 681.075,694.903 L690.483,702.689 C681.717,696.044 675.078,667.987 683.626,653.975 z M508.35,544.825 C516.56,541.69 550.751,549.142 552.782,538.335 C558.36,526.282 561.791,513.733 564.21,500.718 C567.233,488.211 568.645,478.862 567.388,466.036 C569.273,454.07 567.918,441.858 565.629,429.815 C565.053,426.892 562.622,419.432 560.039,412.668 C558.739,407.731 555.508,403.704 553.62,399.037 C549.907,395.524 536.135,396.287 530.141,395.517 C519.288,393.767 508.369,392.474 497.502,390.805 L464.498,392.99 C463.539,395.148 462.403,397.163 461.103,399.151 C456.813,405.342 453.173,411.793 450.438,418.8 C439.052,443.054 437.301,467.615 438.636,493.89 C439.295,503.075 440.778,512.049 443.086,520.964 C442.523,527.613 450.056,533.605 450.523,539.24 C450.343,541.487 455.665,540.928 457.315,541.06 C474.46,543.476 491.066,545.642 508.35,544.825 L508.35,544.825 z M488.692,525.782 C477.863,521.964 489.29,502.968 481.295,501.434 C462.788,498.16 460.171,502.284 454.184,486.57 C448.931,460.289 462.361,462.532 481.096,460.04 C490.265,460.735 482.621,436.992 485.921,432.953 C489.875,428.112 504.956,430.575 516.043,431.293 C526.46,435.807 517.389,449.887 524.732,458.742 C533.831,457.257 538.366,461.588 547.268,462.081 C555.093,467.049 553.9,483.248 551.044,491.869 C543.837,498.827 532.012,496.346 523.013,500.123 C518.843,507.241 524.946,513.383 518.979,522.564 C506.457,527.763 504.017,527.448 488.692,525.782 z M512.834,520.477 C518.61,514.066 514.458,501.13 517.522,492.725 C526.141,494.865 537.193,490.651 545.282,490.263 C548.371,487.86 546.17,473.147 546.121,467.957 C536.757,464.832 527.977,466.334 518.249,463.433 C514.35,456.794 515.873,448.643 515.86,440.562 C513.932,434.284 496.454,436.748 489.859,436.792 C489.043,441.568 493.798,467.216 485.845,467.275 C474.213,464.067 468.399,468.341 461.942,469.218 C455.146,471.771 460.152,480.72 459.849,488.376 C464.643,497.4 475.565,495.56 483.891,494.641 C494.198,497.982 485.611,512.737 490.038,520.321 C498.886,523.459 504.288,522.238 512.834,520.477 z M568.07,536.341 C575.101,527.966 576.795,514.942 579.712,505.024 C582.508,490.162 584.33,474.484 583.705,458.556 C583.793,446.53 582.405,433.105 577.889,421.818 C575.536,414.469 573.182,407.327 570.502,400.073 C570.078,398.193 563.669,398.402 562.781,399.303 C564.296,402.341 566.037,405.23 567.204,408.442 C570.362,416.55 571.388,424.793 573.126,433.327 C575.004,445.127 574.309,457.17 574.902,469.08 C574.242,484.132 573.334,495.101 570.911,507.798 C568.089,517.721 565.505,528.256 562.121,539.17 C561.789,539.463 561.896,539.913 561.614,540.229 C561.229,540.467 561.916,540.59 563.254,540.521 C565.007,540.379 567.424,538.036 568.07,536.341 z M594.949,535.061 C595.434,534.712 596.93,532.229 596.93,531.773 C602.696,523.045 607.696,513.056 611.048,503.14 C613.961,492.678 616.985,482.512 619.469,471.91 C622.205,460.782 622.116,461.474 621.846,453.451 C621.731,450.022 621.597,447.177 621.549,447.129 C621.5,447.08 621.556,446.925 621.673,446.784 C621.811,441.397 618.678,431.977 616.992,426.629 C614.945,420.876 610.221,411.281 605.256,407.857 C600.534,406.355 595.619,405.095 591.093,402.982 C587.752,402.599 582.524,400.294 579.476,399.966 C575.745,400.115 581.495,411.441 582.315,413.677 C587.781,428.368 590.998,443.65 590.7,459.363 C590.113,465.39 590.969,472.118 590.179,478.124 C589.442,486.107 587.678,493.444 587.022,501.436 C583.898,520.271 579.652,527.438 574.551,538.651 C577.358,541.879 591.133,536.428 594.949,535.061 z M441.4,537.61 C441.495,537.035 441.465,536.919 441.244,537.004 C437.245,530.198 438.137,526.072 434.209,515.223 C433.187,504.065 431.444,494.543 431.322,484.112 C431.688,459.932 434.204,447.625 439.356,426.724 C441.47,420.276 443.443,414.834 446.126,408.6 C448.421,404.362 449.502,399.113 452.24,395.132 C452.541,394.722 452.724,394.324 452.646,394.247 C452.568,394.171 449.045,394.147 447.592,394.591 C439.498,395.776 440.546,401.02 436.575,410.877 C431.978,418.446 430.444,426.999 427.79,435.403 C424.875,443.899 423.966,452.911 422.422,461.722 C420.435,470.164 420.367,478.956 420.974,487.569 C421.898,496.938 423.744,506.149 426.268,515.209 C427.544,523.44 432.967,529.774 435.895,537.063 C436.927,538.319 440.998,540.184 441.4,537.61 z M423.589,532.539 C420.626,523.543 419.683,519.013 417.186,508.467 C412.257,490.489 412.578,473.412 416.2,455.243 C417.568,444.19 420.641,432.804 424.375,422.331 C427.081,414.914 429.387,407.864 432.789,400.759 C432.789,400.475 431.715,400.974 429.015,402.516 C425.024,404.622 421.154,406.949 417.187,409.099 C395.221,423.741 397.099,459.936 395.978,483.23 C395.37,495.525 400.506,508.241 403.519,519.171 C407.051,527.572 415.524,531.599 424.11,533.718 C423.989,533.305 423.781,532.922 423.589,532.539 z M608.793,394.253 C613.042,391.063 617.023,387.57 623.206,379.823 C625.887,374.883 629.422,375.3 629.03,370.208 C631.296,365.378 623.648,358.818 621.445,360.69 C615.565,375.968 600.211,382.453 596.506,395.889 C598.568,396.344 599.607,396.717 601.269,397.598 C602.533,397.997 607.075,395.685 608.793,394.253 z M426.704,391.767 C420.212,385.725 415.209,378.138 410.164,370.878 C406.037,363.441 399.972,358.266 392.804,353.898 C388.959,356.593 386.293,360.849 385.435,365.431 C393.091,371.381 400.85,378.548 407.814,385.73 C411.362,389.367 414.941,392.988 418.331,396.773 C420.511,397.379 430.335,394.483 426.704,391.767 z M589.092,391.648 C590.812,388.88 593.281,386.798 595.695,384.596 L597.159,383.155 C596.781,382.315 596.367,381.493 595.797,380.765 C593.576,371.826 590.929,364.435 587.403,355.907 C584.742,347.865 581.313,339.787 580.482,331.291 C579.288,324.3 578.952,315.519 581.389,307.635 C582.069,305.129 583.159,298.306 584.578,296.172 C579.623,297.709 573.04,303.304 568.37,305.71 C554.266,311.674 544.138,322.332 531.651,330.969 C524.036,334.574 516.746,334.846 507.777,334.949 C502.116,333.429 497.741,331.821 492.669,328.976 C486.274,322.145 483.362,320.587 479.225,312.471 C476.294,306.054 469.326,298.242 465.558,292.332 C460.914,286.322 452.985,274.901 449.343,271.133 C451.038,277.587 455.81,293.564 452.435,307.863 C449.878,317.781 442.726,326.129 438.609,335.301 C435.23,341.211 432.659,348.459 428.893,354.138 C424.383,358.318 420.705,364.772 418.49,371.067 C422.777,376.847 427.336,383.475 432.856,388.877 L434.514,390.367 C438.281,389.151 442.109,388.146 445.901,387.015 C450.223,385.711 456.561,384.307 459.58,383.987 C460.983,383.735 465.429,384.9 464.199,382.757 C463.657,381.93 462.768,378.097 463.237,378.387 C463.714,376.682 466.407,372.38 465.627,370.806 C463.309,367.587 457.229,360.051 463.033,357.645 C466.507,354.154 474.176,355.55 478.208,357.282 C482.467,359.938 487.436,361.159 490.255,365.398 C490.928,366.476 491.114,367.619 491.72,367.718 C493.833,367.278 495.213,363.475 500.251,363.656 C505.114,364.613 504.567,368.257 509.112,367.851 C511.067,367.817 513.921,364.934 514.749,364.354 C517.534,361.846 520.02,359.049 523.165,356.975 C526.526,355.139 530.384,353.834 534.232,354.378 C537.387,355.419 538.698,359.15 539.92,362.168 C538.745,367.213 535.517,369.402 535.998,373.659 C536.494,378.039 541.576,381.172 541.939,385.285 C542.283,389.186 541.056,389.199 545.492,388.991 C550.797,390.772 562.214,389.889 564.472,389.938 C571.741,389.689 578.97,390.606 585.68,393.461 C589.626,395.154 587.424,393.707 589.092,391.648 z M537.31,386.718 C536.94,379.37 531.897,380.233 530.007,374.519 C528.719,370.627 536.272,363.348 533.879,361.755 C531.2,359.97 523.536,366.045 522.03,366.947 C516.51,370.193 519.554,371.137 514.507,373.147 C512.319,373.227 512.414,376.988 511.212,379.344 C509.528,384.097 521.598,385.788 525.236,386.249 C526.16,386.086 538.283,388.278 537.31,386.718 z M489.276,381.491 C489.341,381.309 489.52,380.948 489.672,380.689 C490.63,378.152 488.858,375.274 488.261,372.819 C488.124,371.079 484.403,367.111 483.125,365.784 C479.749,362.825 476.248,360.937 471.815,360.116 C468.972,359.737 467.858,361.301 466.321,361.12 C465.474,363.885 471.523,369.788 472.87,372.164 C475.095,375.601 470.686,377.673 470.047,381.803 C471.782,385.301 485.193,382.36 489.276,381.49 L489.276,381.491 z M606.696,373.425 C610.687,368.497 613.268,362.532 615.538,356.652 C609.53,347.341 607.923,334.783 604.446,324.395 C601.095,307.536 605.438,294.555 612.488,279.408 C625.463,249.192 607.069,212.51 587.936,189.095 C563.985,167.149 529.202,163.289 497.325,166.382 C474.606,174.375 449.258,187.634 438.218,210.117 C421.729,230.43 422.953,243.48 426.029,267.929 C426.101,280.48 428.325,295.852 425.786,306.731 C417.804,323.893 396.84,338.183 398.408,350.405 C403.958,353.51 408.065,358.378 412.601,362.704 C417.759,359.379 419.451,356.468 424.753,348.549 C435.546,332.623 436.607,326.233 445.596,311.533 C456.187,283.423 441.863,266.584 443.432,260.735 C446.508,262.288 448.505,259.523 450.828,264.665 C450.609,260.355 452.134,243.335 457.398,230.187 C459.074,223.502 464.646,218.766 470.051,215.05 C470.569,214.777 471.631,214.079 472.409,213.498 C475.759,210.842 479.728,209.788 483.918,209.757 C487.871,209.757 491.46,210.407 493.842,211.555 C504.005,216.271 507.693,227.901 511.315,237.854 C513.436,245.182 514.531,249.558 513.546,257.19 C513.825,261.12 528.882,262.029 527.852,260.335 C525.708,255.8 530.499,246.597 532.094,242.583 C537.671,228.213 548.212,218.754 564.359,218.171 C572.167,220.29 577.999,227.696 580.813,229.467 C584.447,237.265 585.92,244.569 586.177,253.128 C586.175,257.478 585.488,264.041 584.742,266.827 C581.917,274.437 585.887,279.369 586.742,285.75 C587.586,286.855 588.335,287.549 589.813,287.744 C599.336,280.83 592.029,294.827 592.029,297.926 C587.072,309.58 585.36,319.879 586.567,332.484 C588.079,341.702 591.573,350.32 594.855,358.992 C596.961,364.784 600.251,370.024 601.92,375.972 C602.098,376.75 602.283,377.509 602.33,377.658 C602.437,377.993 604.65,375.848 606.696,373.425 L606.696,373.425 L606.696,373.425 z M502.789,379.383 C506.089,376.289 505.909,373.264 504.3,371.233 C502.958,369.538 500.146,367.673 497.49,369.827 C492.504,372.538 498.826,381.435 502.789,379.383 z M541.155,318.305 C552.099,310.08 556.396,306.925 564.931,302.174 C567.746,300.607 570.784,297.938 574.264,295.528 C576.462,293.776 582.899,289.568 585.255,288.108 C581.096,286.179 560.338,275.314 550.548,271.66 C539.296,267.321 530.996,262.257 518.745,264.386 C503.352,259.198 483.551,260.826 469.76,269.049 C463.963,270.72 458.646,270.515 454.181,270.21 C457.207,273.304 461.717,281.415 464.892,284.657 C473.681,294.104 479.985,305.406 485.914,316.758 C492.259,324 505.092,333.437 515.425,330.819 L515.425,330.819 L515.425,330.819 L515.425,330.819 L515.425,330.819 L515.425,330.819 L515.425,330.819 L515.425,330.819 L515.425,330.819 L515.425,330.819 L515.425,330.819 L515.425,330.819 L515.425,330.819 L515.425,330.819 L515.425,330.819 L515.425,330.819 L516.572,330.361 C529.955,329.009 532.043,325.341 541.155,318.305 z M579.457,280.724 C579.229,272.604 581.385,264.887 581.785,252.865 C581.285,240.312 579.02,216.493 549.157,229.225 C540.867,232.76 534.755,247.905 533.425,257.212 C532.875,259.624 533.639,262.365 535.167,262.575 C537.431,262.885 540.738,265.062 542.959,265.624 C542.205,257.794 542.147,247.675 551.107,242.736 C556.992,241.581 562.333,240.958 567.384,245.765 C576.003,255.665 567.181,268.889 566.63,271.963 C567.918,275.54 579.495,282.065 579.457,280.724 z M472.78,263.514 C469.286,258.097 463.059,245.447 472.853,237.632 C478.936,232.779 482.873,234.107 486.148,235.311 C498.504,239.857 498.134,253.518 497.32,257.697 C498.891,258.363 504.074,258.224 505.796,258.436 C511.218,254.013 504.675,236.186 502.315,230.538 C497.412,219.656 489.369,214.681 477.809,219.372 C465.875,226.371 463.658,236.336 460.313,248.998 C458.83,254.737 457.597,260.564 455.01,265.92 C457.751,269.798 469.217,264.882 472.78,263.514 z M454.863,265.978 C454.863,265.875 454.825,265.79 454.78,265.79 C454.734,265.79 454.644,265.875 454.58,265.978 C454.582,266.274 454.735,266.146 454.863,265.978 z" fill="#FFFFFF" id="path2994"/>
    <g>
      <path d="M540.9,319.706 C531.789,326.741 529.7,330.409 516.318,331.761 L515.171,332.22 L515.171,332.22 L515.171,332.22 L515.171,332.22 L515.171,332.22 L515.171,332.22 L515.171,332.22 L515.171,332.22 L515.171,332.22 L515.171,332.22 L515.171,332.22 L515.171,332.22 L515.171,332.22 L515.171,332.22 L515.171,332.22 L515.171,332.22 C504.838,334.838 492.004,325.401 485.659,318.158 C479.731,306.807 473.426,295.504 464.637,286.058 C461.463,282.816 456.952,274.704 453.926,271.611 C458.392,271.916 463.708,272.121 469.506,270.45 C483.297,262.227 503.097,260.599 518.491,265.787 C530.741,263.658 539.041,268.721 550.293,273.061 C560.083,276.714 580.842,287.579 585,289.509 C582.645,290.969 576.207,295.177 574.009,296.929 C570.529,299.338 567.492,302.007 564.677,303.574 C556.141,308.325 551.845,311.481 540.9,319.706 z" fill="#FFFFFF"/>
      <path d="M540.9,319.706 C531.789,326.741 529.7,330.409 516.318,331.761 L515.171,332.22 L515.171,332.22 L515.171,332.22 L515.171,332.22 L515.171,332.22 L515.171,332.22 L515.171,332.22 L515.171,332.22 L515.171,332.22 L515.171,332.22 L515.171,332.22 L515.171,332.22 L515.171,332.22 L515.171,332.22 L515.171,332.22 L515.171,332.22 C504.838,334.838 492.004,325.401 485.659,318.158 C479.731,306.807 473.426,295.504 464.637,286.058 C461.463,282.816 456.952,274.704 453.926,271.611 C458.392,271.916 463.708,272.121 469.506,270.45 C483.297,262.227 503.097,260.599 518.491,265.787 C530.741,263.658 539.041,268.721 550.293,273.061 C560.083,276.714 580.842,287.579 585,289.509 C582.645,290.969 576.207,295.177 574.009,296.929 C570.529,299.338 567.492,302.007 564.677,303.574 C556.141,308.325 551.845,311.481 540.9,319.706 z" fill-opacity="0" stroke="#FFFEFE" stroke-width="4"/>
    </g>
    <g>
      <path d="M430.246,819.788 C427.729,824.06 424.503,834.216 419.068,828.762 C415.553,826.405 411.298,821.27 407.11,820.231 C406.574,820.231 405.964,820.111 405.753,819.963 C402.551,818.756 397.198,818.801 393.789,818.346 C388.763,817.564 383.761,816.73 378.617,817.093 C374.994,817.056 370.682,819.894 370.622,819.833 C370.451,819.661 372.641,816.098 374.867,814.79 C381.547,810.865 383.57,809.862 389.606,807.479 C392.157,806.455 394.706,805.384 397.329,804.578 C397.636,804.407 399.217,803.737 404.917,801.363 C408.683,799.775 416.656,793.778 415.008,788.719 C414,785.421 415.049,781.202 415.734,775.434 C421.117,775.866 423.208,775.104 428.431,773.773 C428.862,775.668 428.068,777.68 427.761,779.527 C426.405,786.131 426.629,785.93 427.761,792.622 C435.13,801.861 458.952,808.819 464.155,819.543 L447.317,815.535 C438.961,816.954 434.558,816.326 430.246,819.788 z" fill="#FFFFFF"/>
      <path d="M430.246,819.788 C427.729,824.06 424.503,834.216 419.068,828.762 C415.553,826.405 411.298,821.27 407.11,820.231 C406.574,820.231 405.964,820.111 405.753,819.963 C402.551,818.756 397.198,818.801 393.789,818.346 C388.763,817.564 383.761,816.73 378.617,817.093 C374.994,817.056 370.682,819.894 370.622,819.833 C370.451,819.661 372.641,816.098 374.867,814.79 C381.547,810.865 383.57,809.862 389.606,807.479 C392.157,806.455 394.706,805.384 397.329,804.578 C397.636,804.407 399.217,803.737 404.917,801.363 C408.683,799.775 416.656,793.778 415.008,788.719 C414,785.421 415.049,781.202 415.734,775.434 C421.117,775.866 423.208,775.104 428.431,773.773 C428.862,775.668 428.068,777.68 427.761,779.527 C426.405,786.131 426.629,785.93 427.761,792.622 C435.13,801.861 458.952,808.819 464.155,819.543 L447.317,815.535 C438.961,816.954 434.558,816.326 430.246,819.788 z" fill-opacity="0" stroke="#FFFFFF" stroke-width="4"/>
    </g>
    <g>
      <path d="M556.829,826.322 C555.174,827.532 554.998,829.599 553.226,827.774 C551.381,826.192 549.374,824.819 547.434,823.358 C541.111,821.057 539.685,821.664 533.097,819.225 C527.548,818.294 521.956,816.208 518.71,817.256 C514.871,818.496 504.915,821.416 506.192,818.975 C507.791,815.625 520.773,812.156 523.766,810.823 C531.035,807.352 538.662,804.658 545.712,800.724 C550.775,797.974 549.578,796.393 549.998,791.55 C550.612,788.563 551.137,786.378 549.698,783.609 C552.567,783.222 556.285,783.072 558.922,784.359 C561.823,787.025 557.781,794.407 562.138,797.18 C567.547,802.475 574.846,803.123 583.82,806.978 C584.456,806.978 591.389,809.441 594.92,810.355 C604.768,812.904 609.706,819.818 598.882,815.118 C598.679,815.029 595.182,815.632 591.913,815.693 C585.735,815.823 579.931,815.489 574.084,817.625 C571.892,818.235 561.712,820.547 560.742,823.364 C558.979,823.109 557.996,825.502 556.829,826.322 z" fill="#FFFFFF"/>
      <path d="M556.829,826.322 C555.174,827.532 554.998,829.599 553.226,827.774 C551.381,826.192 549.374,824.819 547.434,823.358 C541.111,821.057 539.685,821.664 533.097,819.225 C527.548,818.294 521.956,816.208 518.71,817.256 C514.871,818.496 504.915,821.416 506.192,818.975 C507.791,815.625 520.773,812.156 523.766,810.823 C531.035,807.352 538.662,804.658 545.712,800.724 C550.775,797.974 549.578,796.393 549.998,791.55 C550.612,788.563 551.137,786.378 549.698,783.609 C552.567,783.222 556.285,783.072 558.922,784.359 C561.823,787.025 557.781,794.407 562.138,797.18 C567.547,802.475 574.846,803.123 583.82,806.978 C584.456,806.978 591.389,809.441 594.92,810.355 C604.768,812.904 609.706,819.818 598.882,815.118 C598.679,815.029 595.182,815.632 591.913,815.693 C585.735,815.823 579.931,815.489 574.084,817.625 C571.892,818.235 561.712,820.547 560.742,823.364 C558.979,823.109 557.996,825.502 556.829,826.322 z" fill-opacity="0" stroke="#FFFFFF" stroke-width="4"/>
    </g>
  </g>
  <g id="Layer_1" display="none">
    <g id="g4164">
      <path d="M391.96,401.258 C445.689,387.195 499.52,375.736 612.683,410.335" fill-opacity="0" stroke="#1E120B" stroke-width="0.175" id="path4022"/>
      <path d="M615.541,429.14 C539.929,408.032 463.294,401.907 387.674,423.952" fill-opacity="0" stroke="#1E120B" stroke-width="0.175" id="path4024"/>
      <path d="M385.531,442.757 C464.107,459.205 540.774,458.228 615.541,445.35" fill-opacity="0" stroke="#1E120B" stroke-width="0.175" id="path4026"/>
      <path d="M383.388,460.264 C460.317,470.342 535.725,475.819 606.969,468.694" fill-opacity="0" stroke="#1E120B" stroke-width="0.175" id="path4028"/>
      <path d="M602.683,492.686 C532.864,498.632 462.254,496.669 390.531,483.608" fill-opacity="0" stroke="#1E120B" stroke-width="0.175" id="path4030"/>
      <path d="M605.54,388.937 C512.023,370.238 449.175,373.579 401.246,387.641" fill-opacity="0" stroke="#1E120B" stroke-width="0.175" id="path4032"/>
      <path d="M391.246,496.576 C455.113,508.282 535.445,515.913 595.54,503.709" fill-opacity="0" stroke="#1E120B" stroke-width="0.175" id="path4034"/>
      <path d="M389.103,433.679 C461.318,427.908 535.482,428.035 613.398,439.515 L613.398,439.515" fill-opacity="0" stroke="#1E120B" stroke-width="0.175" id="path4036"/>
    </g>
    <path d="M385.567,326.46 C381.081,328.39 377.471,334.39 377.822,338.828 C389.713,349.507 400.121,362.39 413.264,371.349 C417.89,370.862 426.007,366.603 419.223,362.174 C408.527,350.651 401.68,334.127 387.23,326.581 C386.69,326.44 386.123,326.341 385.567,326.46 z" fill="#C87137" id="path3093"/>
    <path d="M495.394,135.448 C453.628,151.35 456.655,149.991 441.88,164.302 C429.694,178.354 417.457,194.919 414.823,215.525 C413.961,235.23 421.277,254.553 419.187,274.149 C413.448,290.64 393.803,303.722 390.15,321.026 C389.197,326.679 396.504,327.058 399.03,330.961 C402.727,336.087 408.28,338.675 411.885,332.137 C424.566,315.396 435.382,296.652 442.257,276.744 C446.978,262.963 441.437,248.005 438.446,235.261 C442.499,239.211 448.564,244.057 445.339,232.787 C448.279,216.644 449.915,196.63 466.345,188.019 C477.441,180.567 492.24,186.211 498.177,197.427 C504.656,207.685 502.236,219.99 503.537,231.733 C506.893,237.587 527.302,241.034 524.424,228.692 C528.431,212.592 536.54,194.489 555.07,192.206 C567.223,196.92 574.805,207.983 577.089,217.5 C580.55,231.585 571.301,247.287 579.887,260.159 C582.118,262.67 588.372,259.181 585.361,264.741 C578.492,282.995 575.228,303.953 583.172,322.567 C587.186,331.357 587.396,345.274 593.839,352.582 C600.481,354.219 603.698,341.27 606.669,337.254 C612.34,331.558 608.446,325.336 605.718,319.404 C598.451,300.673 595.084,278.969 604.214,260.115 C614.959,238.103 612.047,211.878 600.933,190.615 C592.131,171.109 577.903,153.425 557.802,144.942 C538.768,135.68 516.425,134.807 495.394,135.448 z" fill="#11151F" id="path3097"/>
    <path d="M375.754,344.626 C354.88,369.759 332.236,393.841 316.631,422.727 C303.483,443.626 289.534,462.246 287.881,487.365 C279.954,519.385 286.482,555.584 290.476,585.904 C294.678,604.411 305.213,620.431 300.654,639.877 C299.401,650.663 290.551,666.56 290.24,677.323 C294.863,680.64 302.334,667.22 305.261,664.682 C328.665,635.297 342.307,599.189 349.763,562.557 C352.588,539.829 353.448,516.867 352.559,494.016 C354.269,470.116 373.32,453.03 383.094,432.338 C388.739,419.205 384.117,402.894 394.57,391.706 C399.001,385.048 418.836,377.558 402.193,368.105 C394.426,359.467 387.168,349.206 376.687,344.018 L375.754,344.626 z" fill="#11151F" id="path3871"/>
    <path d="M623.803,353.021 C617.845,361.103 609.649,368.111 603.934,376.378 C616.276,392.555 622.078,412.72 620.767,432.986 C622.047,440.134 616.436,448.199 620.681,454.6 C627.07,460.32 633.851,467.625 631.914,477.106 C625.566,509.384 626.069,541.197 637.104,571.549 C643.167,586.938 648.593,602.457 649.999,618.993 C649.221,641.313 664.156,667.286 683.687,677.661 C688.399,675.101 677.111,663.285 676.803,659.422 C672.846,647.562 674.229,634.678 679.533,623.402 C688.885,596.194 701.492,570.06 699.39,540.69 C704.95,510.181 694.387,475.346 686.872,445.728 C679.747,422.623 663.567,406.251 650.699,386.069 C642.325,374.992 635.427,362.227 625.02,353.021 L624.858,352.98 L623.803,353.021 z" fill="#11151F" id="path3873"/>
    <path d="M335.122,628.563 C330.195,639.646 322.962,649.519 316.712,659.666 C316.791,673.5 324.009,686.427 329.601,698.771 C335.019,708.758 341.963,717.908 348.139,727.426 C350.798,732.277 369.058,745.187 354.911,727.304 C342.409,705.403 340.291,679.378 338.775,654.557 C338.154,645.736 343.769,621.831 342.09,613.274 C340.864,612.593 335.996,627.633 335.122,628.563 z" fill="#11151F" id="path3875"/>
    <path d="M633.54,582.352 C629.471,587.126 635.043,604.703 633.83,610.598 C633.597,646.083 627.838,680.815 615.121,714.077 C614.086,716.752 603.798,742.95 609.868,740.604 C623.25,728.671 640.717,696.75 646.593,679.819 C649.282,671.791 654.607,664.478 657.258,656.584 C647.955,639.575 643.943,620.896 641.402,601.881 C640.128,598.914 637.961,582.365 633.54,582.352 z" fill="#11151F" id="path3877"/>
    <path d="M478.593,188.849 C469.533,189.169 461.944,195.95 457.854,203.614 C452.586,214.663 451.376,227.052 446.659,238.26 C446.206,241.261 450.043,242.309 452.377,242.113 C457.3,241.778 461.947,239.933 466.549,238.23 C468.851,236.592 466.441,234.128 465.728,232.31 C463.893,228.874 462.536,225.093 462.951,221.138 C462.339,216.074 466.526,211.973 470.696,209.844 C474.607,207.95 479.206,209.857 482.587,212.004 C487.453,215.491 489.196,221.661 489.026,227.383 C489.074,229.327 488.532,232.64 491.361,232.67 C494.254,232.913 497.377,233.578 500.166,232.543 C503.27,230.18 502.86,225.685 502.615,222.214 C501.523,214.16 499.034,206.217 495.138,199.078 C491.885,193.011 485.641,188.586 478.593,188.849 z" fill="#FFF6F3" id="path4180"/>
    <path d="M554.119,193.675 C548.847,194.093 544.936,198.32 541.431,201.876 C534.056,209.702 530.008,219.997 527.294,230.221 C527.07,232.376 525.788,235.11 527.467,236.932 C530.137,238.274 532.972,239.607 535.901,240.184 C538.27,240.122 538.075,237.388 537.899,235.716 C537.977,229.339 540.217,222.509 545.532,218.603 C551.382,213.957 561.323,216.077 564.196,223.176 C566.847,229.397 564.33,236.679 560.06,241.565 C559.023,243.539 555.733,244.392 556.369,246.969 C560.021,251.135 565.365,253.599 570.704,254.785 C573.474,254.792 572.951,251.401 573.046,249.534 C572.905,239.944 576.152,230.55 575.165,220.905 C574.64,212.777 573.171,203.818 567.105,197.841 C564.059,194.824 559.735,193.428 555.508,193.675 C555.045,193.667 554.581,193.65 554.119,193.675 z" fill="#FFF6F3" id="path4182"/>
    <path d="M442.472,244.83 C440.178,246.176 441.961,249.046 442.239,251.004 C444.859,261.293 446.473,272.431 443.179,282.788 C439.94,291.77 434.02,299.411 430.039,308.064 C426.733,314.231 424.166,320.935 420.088,326.59 C418.882,328.318 415.827,330.163 417.285,332.583 C419.019,334.367 421.92,333.484 424.118,334.09 C434.126,335.271 443.909,337.887 453.887,339.171 C456.16,339.397 456.701,336.757 455.844,335.136 C455.502,334.08 455.636,332.86 456.838,332.399 C458.706,330.843 461.063,330.106 463.468,330.443 C468.877,330.291 473.483,333.402 478.007,335.976 C480.546,337.126 482.029,339.483 483.52,341.685 C485.518,343.6 487.663,341.013 489.258,339.871 C491.226,338.196 494.3,338.016 496.152,339.972 C498.337,342.251 501.917,343.673 504.809,341.777 C511.242,338.19 515.391,330.556 523.108,329.398 C525.165,329.049 527.908,328.605 529.048,330.899 C529.859,332.414 531.206,334.009 531.137,335.775 C530.301,337.439 530.972,339.767 533.073,339.85 C539.582,341.525 546.444,340.909 553.104,340.718 C563.142,339.779 573.083,337.637 583.204,338.309 C585.206,338.456 585.897,335.978 584.806,334.488 C581.492,326.014 578.301,317.429 576.209,308.571 C574.534,299.42 573.893,289.862 576.338,280.821 C576.746,278.001 577.936,275.268 578.186,272.475 C577.908,270.709 575.501,270.532 574.202,271.522 C568.149,274.61 562.586,278.402 556.38,281.194 C544.275,287.719 534.104,297.107 522.479,304.348 C515.843,307.353 508.426,308.722 501.19,308.616 C494.277,306.635 487.997,302.994 482.04,299.016 C474.564,293.53 471.797,284.218 466.734,276.798 C459.992,266.24 452.861,255.889 445.273,245.91 C444.609,245.009 443.62,244.464 442.472,244.83 z" fill="#FFF6F3" id="path4184"/>
    <path d="M587.208,348.244 C569.383,351.52 551.094,351.919 532.982,351.002 C530.688,351.095 530.71,353.97 531.958,355.29 C534.047,357.486 532.724,361.047 534.675,363.248 C536.633,364.164 538.973,363.664 541.062,364.313 C550.389,365.066 559.853,364.438 569.128,365.462 C573.175,366.092 576.861,367.707 580.69,368.875 C582.548,369.109 583.211,367.212 583.772,365.823 C585.958,362.247 589.746,359.892 592.053,356.457 C592.104,354.408 590.25,352.755 590.047,350.657 C589.732,349.353 588.748,347.936 587.208,348.244 z" fill="#FFF6F3" id="path4188"/>
    <path d="M412.1,341.442 C409.865,341.635 409.507,344.575 410.995,345.913 C415.815,352.605 420.664,359.43 426.86,364.921 C429.559,365.335 432.091,363.624 434.718,363.165 C441.186,361.452 447.655,359.142 454.374,358.747 C456.357,359.219 459.687,358.476 459.342,355.827 C458.32,353.674 458.493,350.071 455.439,349.714 C442.301,347.489 429.031,345.779 415.972,343.236 C414.673,342.633 413.693,341.236 412.1,341.442 z" fill="#FFF6F3" id="path4186"/>
    <path d="M380.186,449.854 C378.601,451.342 378.168,453.731 376.55,455.26 C372.418,459.8 368.511,464.681 365.559,470.148 C360.055,479.939 358.298,491.29 357.348,502.336 C356.119,519.429 357.039,536.628 355.6,553.693 C353.911,569.22 351.896,584.807 348.08,599.943 C346.289,606.855 345.523,614.019 344.295,621.055 C341.539,637.602 343.776,654.388 344.671,670.997 C345.307,681.27 346.549,691.566 349.776,701.377 C351.84,707.479 352.27,714.227 356.065,719.642 C358.913,724.433 361.76,729.228 365.02,733.751 C366.495,737.532 371.083,738.4 374.671,738.779 C381.98,739.297 389.372,738.573 396.64,739.357 C401.95,740.938 407.561,742.413 413.12,741.304 C420.881,740.111 429.082,737.512 436.737,740.598 C441.072,741.915 445.668,744.712 450.264,742.952 C452.565,742.163 454.866,741.522 457.273,741.587 C462.665,739.979 464.932,734.27 468.81,730.73 C471.69,727.922 472.207,723.776 473.443,720.156 C478.775,723.073 485.116,724.946 491.123,723.066 C492.458,722.93 493.979,721.691 495.138,722.113 C498.884,726.938 497.919,733.808 501.078,738.982 C505.446,746.936 514.613,752.613 523.836,751.188 C529.647,750.864 535.182,748.343 541.021,748.673 C545.923,748.999 550.685,750.466 555.589,750.812 C561.222,749.299 566.674,746.455 572.64,746.814 C577.526,746.671 582.378,746.926 587.188,747.791 C591.695,748.527 596.058,746.053 598.481,742.347 C607.277,730.044 610.995,715.134 616.346,701.192 C623.934,682.317 625.141,661.778 628.105,641.854 C629.562,631.816 630.914,621.71 630.254,611.542 C629.398,595.594 629.821,579.499 628.915,563.539 C628.155,556.013 626.312,548.662 626.185,541.075 C625.766,531.923 625.233,522.736 624.819,513.59 C624.656,503.663 626.913,493.906 627.695,484.041 C628.699,474.917 626.199,465.233 619.869,458.419 C618.607,456.393 615.902,457.75 615.908,459.883 C612.776,469.125 610.674,478.714 606.957,487.719 C605.346,491.184 602.734,494.087 601.361,497.694 C598.607,503.258 596.81,509.503 592.794,514.32 C588.963,514.991 585.206,516.172 581.44,517.159 C574.069,518.37 566.554,518.733 559.15,519.905 C540.823,522.004 522.349,523.497 503.938,524.609 C485.749,525.386 467.735,522.289 449.724,520.401 C439.408,518.973 428.892,518.14 419.186,514.077 C411.256,510.874 403.351,507.297 395.88,503.24 C393.174,501.875 393.315,498.387 391.829,496.062 C388.656,489.752 386.276,483.042 384.458,476.254 C383.898,467.863 383.649,459.403 382.871,451.055 C382.678,449.778 381.239,449.424 380.186,449.854 z" fill="#FFF6F3" id="path4190"/>
    <g id="path3899">
      <path d="M454.372,397.989 C431.411,442.941 441.623,479.097 454.048,502.772 C489.068,509.043 510.008,503.826 539.691,502.772 C561.202,462.274 548.062,424.714 543.908,401.557 C504.664,393.999 493.023,394.847 454.372,397.989 z" fill="#ECECEC"/>
      <path d="M454.372,397.989 C431.411,442.941 441.623,479.097 454.048,502.772 C489.068,509.043 510.008,503.826 539.691,502.772 C561.202,462.274 548.062,424.714 543.908,401.557 C504.664,393.999 493.023,394.847 454.372,397.989 z" fill-opacity="0" stroke="#000000" stroke-width="0.017"/>
    </g>
    <path d="M415.112,808.85 C414.834,808.565 414.397,808.188 414.142,808.013 C408.416,809.697 403.264,804.211 399.287,800.214 C393.844,798.589 387.012,798.519 381.108,797.663 C371.437,795.629 362.02,801.897 354.622,794.977 C354.549,791.088 359.935,786.48 362.097,784.34 C365.773,781.919 368.634,779.447 372.5,777.348 C377.909,774.551 382.366,771.461 387.994,769.141 C392.888,767.448 397.164,764.434 401.657,761.915 C402.477,755.26 402.993,754.364 403.58,747.189 C402.42,746.353 395.449,745.267 391.602,744.88 C385.88,744.182 380.178,745.117 374.46,745.172 C366.415,747.988 364.447,743.959 358.069,740.205 C352.485,738.636 350.018,736.774 345.885,732.467 C342.67,728.727 340.404,724.321 338.11,719.988 C332.33,710.67 325.947,704.533 321.605,693.858 C319.435,687.73 316.759,681.918 315.307,675.557 C314.793,673.069 313.224,667.933 312.88,667.615 C312.802,667.543 311.89,668.419 310.852,669.562 C306.333,674.668 301.235,679.129 296.45,683.857 C292.993,687.459 288.648,689.056 283.705,688.281 C283.636,688.099 283.432,688.05 283.058,688.125 C282.661,688.204 282.48,688.152 282.396,687.933 C282.333,687.767 282.108,687.632 281.897,687.632 C280.871,687.109 279.836,685.607 279.628,684.472 C279.475,683.977 279.379,683.849 279.58,683.284 C283.311,679.744 283.963,675.912 285.759,671.218 C289.273,660.362 291.542,649.135 294.061,638.012 C295.397,631.753 295.966,624.594 295.405,621.107 C293.853,608.621 288.46,597.146 285.27,585.09 C282.476,576.045 282.379,566.638 282.516,557.262 C283.593,543.75 281.89,529.571 280.833,515.98 C280.919,507.877 283.509,498.904 282.269,490.851 C283.082,484.632 284.79,476.581 286.724,469.889 C289.681,455.526 295.092,444.201 302.937,431.758 C311.715,417.775 320.093,403.559 329.113,389.706 C333.018,383.559 338.394,378.533 343.018,372.929 C351.093,362.671 358.792,352.709 367.862,343.312 C371.634,340.839 369.787,339.666 370.271,336.247 C371.011,332.34 372.915,328.885 375.072,325.587 C376.755,323.213 379.749,320.58 381.613,319.834 C394.79,301.944 411.608,291.172 413.416,276.467 C415.773,257.297 414.996,263.313 413.553,243.871 C412.437,230.476 410.078,218.93 414.511,205.828 C418.591,190.488 420.078,188.211 428.929,175.638 C446.403,155.299 453.887,147.143 475.536,137.093 C499.016,132.623 508.177,131.122 529.709,133.309 C558.699,142.65 571.208,147.871 590.355,165.218 C600.047,176.607 608.561,194.195 614.576,213.658 C615.859,236.299 615.591,242.882 605.368,269.444 C600.039,285.441 602.372,296.274 607.144,310.672 C610.842,318.678 612.095,327.683 619.357,329.134 C624.205,330.104 626.923,335.591 627.195,338.417 C628.008,344.103 629.569,348.542 633.178,352.84 C636.578,356.888 640.027,360.9 643.124,365.189 C651.841,376.511 660.344,386.927 667.621,399.346 C671.335,406.145 675.396,412.526 679.45,419.062 C682.585,423.141 684.812,427.727 687.194,432.244 C691.98,440.465 693.519,449.73 695.827,458.777 C698.337,472.717 701.086,486.865 703.377,500.85 L706.115,543.379 C707.259,564.106 700.696,586.583 693.356,605.789 C689.131,616.199 685.815,626.944 682.172,637.566 C677.174,652.789 683.127,664.941 692.395,677.05 C693.899,678.78 694.05,679.331 693.383,680.639 C691.074,683.788 686.32,683.685 683.019,682.354 C679.497,681.227 676.698,678.94 673.938,676.605 C668.72,673.472 664.758,668.325 660.78,663.672 C656.454,670.561 653.207,678.011 650.735,685.745 C647.825,695.749 643.116,703.841 637.842,712.583 C633.482,720.428 625.117,725.182 621.224,733.288 C619.528,736.96 617.251,740.456 614.421,743.354 C610.979,746.517 606.336,747.113 602.132,748.671 C598.533,754.613 593.708,755.263 586.874,754.905 C583.618,754.4 578.871,753.641 577.346,753.383 C569.701,751.431 566.144,755.636 559.804,757.438 C553.774,760.677 562.422,767.537 566.343,768.676 C574.889,773.066 583.033,775.599 592.251,778.605 C596.965,781.112 601.568,783.642 604.864,787.956 C606.224,790.037 607.458,792.094 608.199,794.462 C602.522,798.91 586.903,795.396 579.421,795.822 C573.182,797.045 567.191,800.187 560.789,800.526 C557.703,800.464 553.841,806.773 552.185,809.134 C550.669,811.515 548.965,811.612 546.547,809.456 C543.866,807.3 541.048,805.317 538.272,803.285 C534.297,799.836 529.461,799.165 524.424,798.48 C518.788,797.543 517.501,797.43 510.18,797.23 C502.047,797.007 500.275,797.067 498.158,797.64 C494.042,798.78 491.779,800.199 489.647,795.693 C488.522,792.989 488.987,791.568 491.413,790.305 C494.974,787.898 498.184,785.019 501.879,782.801 C506.068,779.876 510.416,777.335 515.049,775.155 C518.429,773.659 521.66,771.819 525.177,770.646 L536.532,765.002 L537.38,755.907 C534.099,756.578 530.825,757.29 527.537,757.932 C520.195,759.229 512.6,756.352 505.857,753.509 C502.529,749.349 499.371,745.063 496.831,740.365 C495.295,738.4 494.385,731.26 492.675,730.971 C485.211,727.568 484.1,729.232 476.546,730.2 C474.471,735.797 466.872,744.831 461.874,749.873 C456.921,752.965 451.395,750.085 445.578,748.963 C439.194,744.686 432.354,745.701 425.379,745.445 C427.181,752.423 424.677,755.315 424.244,762.445 C426.404,767.532 434.464,771.713 442.354,774.539 C450.809,778.291 460.802,783.785 464.495,789.899 C467.236,792.384 467.271,795.234 462.801,797.315 C460.191,797.808 456.926,796.971 454.233,796.627 C449.693,796.108 445.155,795.578 440.633,794.925 C436.404,794.251 429.407,795.025 429.407,796.166 C428.83,799.349 419.594,811.714 415.112,808.85 L415.112,808.85 z M423.226,792.512 C427.538,789.05 431.941,789.678 440.297,788.259 L457.134,792.267 C451.932,781.543 428.11,774.585 420.741,765.346 C419.608,758.654 419.384,758.855 420.741,752.251 C421.048,750.404 421.842,748.392 421.411,746.496 C416.188,747.827 414.097,748.59 408.714,748.157 C408.028,753.926 406.98,758.144 407.988,761.443 C409.636,766.501 401.663,772.498 397.897,774.087 C392.197,776.461 390.616,777.13 390.309,777.302 C387.686,778.107 385.137,779.178 382.586,780.202 C376.549,782.585 374.527,783.589 367.847,787.514 C365.621,788.822 363.431,792.384 363.601,792.556 C363.662,792.618 367.974,789.779 371.597,789.817 C376.74,789.454 381.743,790.287 386.768,791.07 C390.178,791.525 395.531,791.48 398.733,792.687 C398.944,792.834 399.553,792.955 400.09,792.955 C404.278,793.994 408.533,799.129 412.048,801.485 C417.483,806.939 420.709,796.784 423.226,792.512 z M549.809,799.046 C550.976,798.226 551.959,795.832 553.721,796.087 C554.692,793.271 564.872,790.958 567.064,790.349 C572.911,788.213 578.715,788.547 584.893,788.416 C588.161,788.356 591.659,787.753 591.862,787.841 C602.686,792.542 597.748,785.627 587.9,783.078 C584.369,782.164 577.435,779.702 576.8,779.702 C567.826,775.846 560.526,775.199 555.117,769.903 C550.761,767.131 554.802,759.748 551.902,757.083 C549.265,755.795 545.547,755.946 542.678,756.333 C544.117,759.102 543.592,761.286 542.978,764.274 C542.557,769.117 543.755,770.698 538.692,773.447 C531.642,777.382 524.015,780.075 516.746,783.546 C513.753,784.879 500.771,788.349 499.171,791.699 C497.895,794.14 507.85,791.22 511.689,789.98 C514.936,788.931 520.528,791.018 526.077,791.949 C532.665,794.388 534.091,793.78 540.414,796.081 C542.354,797.543 544.361,798.916 546.206,800.498 C547.978,802.323 548.154,800.255 549.809,799.046 z M534.613,747.43 C541.906,745.398 548.879,748.7 555.905,749.141 C564.7,745.209 572.519,743.92 582.251,745.288 C587.013,745.967 589.429,747.36 593.535,744.904 C597.297,742.148 599.695,737.356 601.97,733.378 C608.608,720.18 611.302,708.492 617.435,693.227 C623.4,673.697 624.456,651.599 627.73,631.949 C630.02,617.062 627.299,601.124 627.723,586.09 C628.043,575.566 628.073,565.871 625.986,555.464 C623.696,544.648 624.396,534.053 623.659,523.302 C621.991,511.377 623.791,499.434 625.675,487.657 C627.266,477.106 625.734,467.582 618.595,459.547 C618.323,459.295 618.05,459.139 617.99,459.2 C617.93,459.26 617.675,460.078 617.424,461.018 C617.174,461.957 616.847,463.047 616.699,463.44 C616.551,463.833 615.907,465.852 615.267,467.927 C614.628,470.003 613.86,472.422 613.561,473.304 C613.016,474.915 612.067,478.27 611.561,480.38 C610.842,483.377 609.519,486.731 607.393,490.945 C601.479,497.682 599.79,510.076 593.517,516.201 C587.615,516.187 584.198,519.321 577.629,519.603 C572.703,519.83 567.795,520.427 562.917,521.19 C562.811,521.257 562.566,521.285 562.373,521.253 C555.64,522.362 548.779,522.9 541.971,523.49 C533.284,524.35 524.587,525.051 515.872,525.563 C497.224,527.712 480.067,525.949 461.637,523.496 C452.608,522.881 443.663,521.185 434.713,520.174 C420.731,518.106 408.226,511.357 395.658,505.31 C391.8,503.063 392.252,501.569 391.023,498.183 C387.17,491.531 384.737,484.1 382.688,476.628 L381.279,450.398 C379.628,456.26 374.429,459.456 371.351,464.201 C368.606,468.121 366.226,472.178 364.255,476.547 C356.108,499.192 359.112,524.823 357.918,548.866 C355.819,567.64 354.15,585.187 348.93,603.456 C345.664,623.672 343.528,631.875 345.05,648.971 C346.136,663.11 345.818,669.431 347.588,683.51 C348.331,693.861 352.522,701.659 354.222,711.705 C355.663,717.295 360.48,722.579 363.165,728.058 C364.35,730.15 366.811,731.862 367.058,734.384 C373.662,739.475 386.447,736.168 394.904,737.277 C397.956,737.776 398.87,738.008 402.733,739.27 C412.331,741.935 420.714,736.354 430.733,737.338 C436.135,737.514 441.279,741.202 446.455,741.794 C449.984,742.253 452.555,739.235 456.009,739.884 C458.785,741.188 464.55,732.973 466.019,730.837 C471.301,727.279 470.025,722.233 472.611,717.686 C478.356,721.148 485.681,724.592 495.347,719.69 C501.646,725.413 498.621,733.594 503.438,739.358 C505.73,743.604 509.954,746.876 514.475,748.481 C521.092,751.126 527.984,748.868 534.613,747.43 L534.613,747.43 z M617.504,723.548 C622.172,717.98 627.581,713.138 631.833,707.212 C640.297,696.283 643.461,682.625 648.735,670.086 C650.438,666.563 654.381,659.734 655.339,658.648 C656.866,656.181 652.606,650.721 651.397,647.818 C647.015,638.737 644.431,630.137 642.54,620.183 C642.206,608.943 639.77,597.641 635.602,587.18 C633.752,600.665 637.153,615.796 635.589,629.685 C634.154,640.483 632.07,652.27 631.729,663.166 C631.153,676.23 627.071,687.382 623.555,699.99 C620.84,708.266 618.272,716.587 614.862,724.611 C613.638,727.529 612.696,730.552 611.339,733.419 C610.713,734.586 611.747,733.472 612.949,731.685 C614.586,729.038 615.798,726.155 617.504,723.548 L617.504,723.548 z M354.152,728.355 C347.423,720.614 345.201,709.477 342.867,699.803 C339.165,674.343 331.53,651.03 340.473,618.673 C338.352,623.765 336.275,628.877 334.134,633.96 C330.882,640.228 328.3,646.944 323.398,652.152 C320.845,654.086 319.394,657.428 317.739,660.157 C317.441,667.067 322.493,679.295 325.002,685.978 C326.85,689.651 327.372,690.439 328.902,695.529 C329.891,699.152 332.308,702.017 334.555,704.942 C338.337,709.733 342.061,714.419 345.007,719.8 C344.137,723.893 359.926,735.739 354.152,728.355 z M295.65,673.012 C296.021,672.598 298.459,670.127 301.068,667.522 C305.634,663.526 308.502,659.049 311.614,654.049 C315.089,648.786 317.944,643.12 321.647,638.012 C326.615,631.424 328.471,623.217 332.262,616.032 C332.515,615.698 333.99,612.305 334.559,610.749 C338.753,601.351 340.098,590.962 343.89,581.436 C343.964,581.37 343.968,581.47 343.901,581.657 C344.511,579.239 346.123,573.52 346.866,570.091 C351.046,560.561 349.967,546.233 350.556,535.841 C350.458,535.781 350.379,535.63 350.381,535.507 C350.383,535.334 350.417,535.334 350.527,535.509 C350.612,535.642 350.773,535.671 350.921,535.58 C350.65,531.201 350.696,526.108 351.33,521.612 C351.709,521.882 351.424,521.241 351.321,521.133 C351.873,518.221 351.686,508.272 351.449,504.53 C349.551,491.364 353.354,478.791 359.057,467.079 C365.242,456.74 372.987,447.484 379.81,437.579 C384.082,430.649 384.495,419.914 385.854,411.516 C381.007,397.823 407.089,379.651 404.485,371.613 C404.404,371.613 404.337,371.481 404.337,371.319 C401.667,368.571 398.79,365.787 396.061,362.984 C389.995,356.875 384.618,349.971 377.217,345.387 C372.92,350.902 367.712,355.692 363.396,361.229 C360.118,365.027 357.16,369.094 353.892,372.898 C346.511,381.803 338.939,389.705 332.743,399.535 C327.065,407.458 322.592,416.124 317.438,424.376 C309.092,436.311 302.28,449.339 297.064,462.928 C293.801,473.512 292.117,484.288 290.056,495.096 C289.672,505.338 288.874,515.629 289.441,525.884 C294.478,546.05 290.034,565.667 293.884,585.693 C295.699,592.023 297.837,598.459 299.829,604.806 C303.189,614.723 304.472,623.253 303.699,633.767 C302.775,640.062 301.34,646.283 299.767,652.445 C298.532,657.279 297.453,662.169 296.118,666.974 C295.479,669.189 294.172,674.094 294.162,674.313 C294.153,674.53 294.783,673.979 295.65,673.012 L295.65,673.012 z M676.871,626.975 C679.424,618.338 682.704,609.941 685.841,601.505 C687.666,596.82 688.886,591.936 690.441,587.166 C692.15,581.927 693.323,576.528 694.404,571.129 C698.215,556.491 697.003,541.056 697.75,526.093 C695.655,502.845 689.691,480.101 686.774,457.029 C684.133,440.946 676.579,429.937 668.491,416.303 C661.769,403.924 654.326,392.07 645.537,381.046 C638.372,370.903 632.35,362.953 624.792,353.783 C621.225,359.821 614.497,367.337 609.456,371.599 C606.644,373.889 604.763,375.447 604.763,375.976 C613.949,386.116 616.769,394.854 620.811,407.845 C623.628,420.657 623.892,432.391 621.192,445.326 C620.41,448.46 619.797,451.258 619.83,451.544 C619.872,451.903 620.153,452.257 620.74,452.691 C623.919,455.041 625.275,456.349 627.833,459.532 C631.576,463.734 633.442,467.419 634.134,473.021 C634.895,481.662 634.908,481.917 634.723,484.551 C634.44,488.595 633.618,495.41 632.884,499.812 C631.127,507.243 631.438,515.098 632.451,522.641 C632.331,538.578 633.915,553.31 637.627,568.676 C639.127,575.604 642.811,581.784 645.065,588.449 C649.375,598.201 650.399,608.569 651.233,619.984 C651.294,620.145 651.421,620.277 651.514,620.277 C654.021,630.891 655.164,641.229 661.017,650.644 C663.251,655.265 667.884,662.442 674.32,667.903 L683.728,675.689 C674.962,669.044 668.323,640.987 676.871,626.975 z M501.596,517.825 C509.805,514.69 543.997,522.142 546.027,511.335 C551.606,499.282 555.036,486.733 557.455,473.718 C560.478,461.211 561.89,451.862 560.634,439.036 C562.518,427.07 561.163,414.858 558.874,402.815 C558.299,399.892 555.867,392.432 553.285,385.668 C551.985,380.731 548.754,376.704 546.865,372.037 C543.153,368.524 529.38,369.287 523.387,368.517 C512.534,366.767 501.614,365.474 490.747,363.805 L457.743,365.99 C456.785,368.148 455.648,370.163 454.348,372.151 C450.058,378.342 446.418,384.793 443.684,391.8 C432.297,416.054 430.546,440.615 431.881,466.89 C432.541,476.075 434.023,485.049 436.331,493.964 C435.768,500.613 443.302,506.605 443.769,512.24 C443.588,514.487 448.91,513.928 450.561,514.06 C467.706,516.476 484.311,518.642 501.596,517.825 L501.596,517.825 z M481.937,498.782 C471.108,494.964 482.536,475.968 474.54,474.434 C456.034,471.16 453.416,475.284 447.43,459.57 C442.176,433.289 455.606,435.532 474.341,433.04 C483.511,433.735 475.867,409.992 479.166,405.953 C483.12,401.112 498.201,403.575 509.288,404.293 C519.706,408.807 510.635,422.887 517.978,431.742 C527.077,430.257 531.612,434.588 540.514,435.081 C548.339,440.049 547.145,456.248 544.29,464.869 C537.082,471.827 525.257,469.346 516.259,473.123 C512.089,480.241 518.192,486.383 512.224,495.564 C499.702,500.763 497.262,500.448 481.937,498.782 z M506.08,493.478 C511.856,487.066 507.703,474.13 510.767,465.725 C519.387,467.865 530.438,463.651 538.528,463.263 C541.617,460.86 539.415,446.147 539.367,440.958 C530.003,437.832 521.222,439.334 511.494,436.433 C507.595,429.794 509.118,421.643 509.105,413.562 C507.177,407.284 489.699,409.748 483.105,409.792 C482.289,414.568 487.044,440.216 479.091,440.275 C467.458,437.067 461.644,441.341 455.187,442.219 C448.391,444.771 453.397,453.72 453.094,461.376 C457.889,470.4 468.811,468.56 477.137,467.641 C487.444,470.982 478.856,485.737 483.284,493.321 C492.131,496.459 497.533,495.238 506.08,493.478 z M561.315,509.341 C568.347,500.966 570.04,487.942 572.957,478.025 C575.753,463.162 577.575,447.484 576.951,431.556 C577.038,419.53 575.65,406.105 571.135,394.818 C568.781,387.469 566.428,380.327 563.747,373.073 C563.324,371.194 556.914,371.402 556.027,372.303 C557.541,375.341 559.283,378.23 560.45,381.442 C563.607,389.55 564.633,397.793 566.371,406.327 C568.25,418.127 567.554,430.17 568.147,442.08 C567.487,457.132 566.579,468.101 564.157,480.798 C561.335,490.721 558.75,501.256 555.366,512.17 C555.034,512.463 555.141,512.913 554.86,513.229 C554.475,513.467 555.162,513.59 556.499,513.521 C558.253,513.379 560.669,511.036 561.315,509.341 z M588.194,508.061 C588.679,507.713 590.175,505.229 590.175,504.773 C595.941,496.045 600.941,486.056 604.294,476.14 C607.206,465.678 610.231,455.512 612.715,444.91 C615.45,433.782 615.361,434.474 615.092,426.451 C614.977,423.022 614.843,420.177 614.794,420.129 C614.745,420.08 614.802,419.925 614.919,419.784 C615.056,414.397 611.923,404.977 610.237,399.629 C608.19,393.876 603.466,384.281 598.501,380.857 C593.779,379.355 588.864,378.095 584.339,375.982 C580.997,375.599 575.769,373.294 572.722,372.966 C568.991,373.115 574.741,384.442 575.56,386.677 C581.027,401.368 584.243,416.65 583.945,432.363 C583.359,438.39 584.214,445.118 583.425,451.124 C582.687,459.107 580.924,466.444 580.267,474.436 C577.144,493.271 572.898,500.438 567.797,511.651 C570.603,514.879 584.378,509.428 588.194,508.061 z M434.646,510.61 C434.741,510.035 434.711,509.919 434.489,510.004 C430.49,503.198 431.382,499.072 427.454,488.223 C426.432,477.065 424.69,467.543 424.567,457.112 C424.933,432.932 427.449,420.625 432.601,399.724 C434.715,393.276 436.689,387.834 439.372,381.6 C441.667,377.362 442.747,372.113 445.486,368.132 C445.787,367.722 445.97,367.324 445.892,367.247 C445.814,367.171 442.29,367.147 440.838,367.591 C432.744,368.776 433.791,374.02 429.821,383.877 C425.223,391.446 423.689,399.999 421.035,408.403 C418.12,416.899 417.212,425.911 415.667,434.722 C413.681,443.164 413.612,451.956 414.219,460.569 C415.143,469.938 416.99,479.149 419.513,488.209 C420.789,496.44 426.212,502.774 429.14,510.063 C430.172,511.319 434.243,513.184 434.646,510.61 z M416.835,505.539 C413.871,496.543 412.928,492.013 410.432,481.467 C405.502,463.489 405.823,446.412 409.446,428.243 C410.813,417.19 413.886,405.804 417.62,395.332 C420.327,387.914 422.632,380.864 426.034,373.759 C426.034,373.475 424.961,373.974 422.261,375.516 C418.269,377.622 414.4,379.949 410.433,382.099 C388.466,396.741 390.344,432.936 389.224,456.23 C388.616,468.525 393.751,481.241 396.765,492.171 C400.297,500.572 408.769,504.599 417.355,506.718 C417.235,506.305 417.027,505.922 416.835,505.539 z M602.039,367.253 C606.287,364.063 610.269,360.57 616.451,352.823 C619.133,347.883 622.668,348.3 622.275,343.208 C624.542,338.378 616.894,331.818 614.69,333.69 C608.811,348.968 593.457,355.453 589.751,368.889 C591.813,369.344 592.853,369.717 594.515,370.598 C595.778,370.997 600.321,368.685 602.039,367.253 z M419.949,364.767 C413.457,358.725 408.455,351.138 403.409,343.878 C399.282,336.441 393.217,331.266 386.05,326.898 C382.204,329.593 379.538,333.849 378.68,338.431 C386.336,344.381 394.095,351.548 401.06,358.73 C404.607,362.367 408.187,365.988 411.576,369.773 C413.757,370.379 423.581,367.483 419.949,364.767 z M582.337,364.648 C584.058,361.88 586.526,359.798 588.94,357.596 L590.404,356.155 C590.026,355.315 589.613,354.493 589.043,353.765 C586.822,344.826 584.175,337.435 580.649,328.907 C577.987,320.865 574.558,312.787 573.728,304.291 C572.533,297.3 572.197,288.519 574.635,280.635 C575.314,278.129 576.404,271.306 577.823,269.172 C572.869,270.709 566.285,276.304 561.615,278.71 C547.511,284.674 537.384,295.332 524.896,303.969 C517.282,307.574 509.992,307.846 501.023,307.949 C495.361,306.429 490.987,304.821 485.914,301.976 C479.52,295.145 476.608,293.587 472.47,285.471 C469.54,279.054 462.571,271.242 458.803,265.332 C454.16,259.322 446.231,247.901 442.588,244.133 C444.284,250.588 449.056,266.564 445.681,280.863 C443.123,290.781 435.971,299.129 431.855,308.301 C428.476,314.211 425.905,321.459 422.139,327.138 C417.628,331.318 413.951,337.772 411.736,344.067 C416.023,349.848 420.582,356.475 426.101,361.877 L427.759,363.367 C431.526,362.151 435.355,361.146 439.146,360.015 C443.469,358.711 449.807,357.307 452.825,356.987 C454.229,356.735 458.675,357.9 457.444,355.757 C456.903,354.93 456.014,351.097 456.482,351.387 C456.96,349.682 459.652,345.38 458.872,343.806 C456.554,340.587 450.474,333.051 456.278,330.645 C459.752,327.154 467.421,328.55 471.453,330.282 C475.713,332.938 480.682,334.159 483.5,338.398 C484.174,339.476 484.359,340.619 484.965,340.718 C487.079,340.278 488.459,336.475 493.496,336.656 C498.359,337.613 497.812,341.257 502.357,340.852 C504.312,340.817 507.167,337.934 507.994,337.354 C510.779,334.846 513.265,332.049 516.41,329.975 C519.772,328.139 523.629,326.834 527.478,327.378 C530.633,328.419 531.943,332.15 533.165,335.169 C531.99,340.213 528.762,342.402 529.244,346.659 C529.74,351.039 534.821,354.172 535.184,358.285 C535.529,362.186 534.301,362.199 538.737,361.991 C544.043,363.772 555.459,362.889 557.718,362.938 C564.987,362.689 572.216,363.606 578.925,366.461 C582.871,368.154 580.669,366.707 582.337,364.648 z M530.556,359.718 C530.186,352.37 525.143,353.234 523.252,347.519 C521.964,343.627 529.517,336.348 527.125,334.755 C524.445,332.97 516.781,339.045 515.275,339.947 C509.755,343.193 512.799,344.137 507.752,346.147 C505.564,346.227 505.659,349.988 504.457,352.344 C502.774,357.097 514.843,358.788 518.482,359.249 C519.406,359.086 531.529,361.278 530.556,359.718 z M482.521,354.491 C482.587,354.309 482.765,353.948 482.918,353.689 C483.875,351.152 482.103,348.274 481.506,345.819 C481.369,344.079 477.649,340.111 476.37,338.784 C472.995,335.825 469.493,333.937 465.061,333.116 C462.217,332.737 461.103,334.301 459.566,334.12 C458.72,336.885 464.768,342.788 466.116,345.164 C468.341,348.601 463.931,350.673 463.292,354.803 C465.027,358.301 478.438,355.36 482.521,354.491 L482.521,354.491 z M599.942,346.425 C603.932,341.497 606.513,335.533 608.783,329.652 C602.775,320.341 601.169,307.783 597.691,297.395 C594.341,280.536 598.683,267.555 605.733,252.408 C618.708,222.192 600.315,185.51 581.182,162.095 C557.23,140.149 522.448,136.289 490.57,139.382 C467.851,147.375 442.503,160.634 431.463,183.117 C414.975,203.43 416.199,216.48 419.274,240.929 C419.347,253.48 421.57,268.852 419.032,279.731 C411.049,296.893 390.086,311.183 391.653,323.405 C397.204,326.51 401.31,331.378 405.847,335.704 C411.004,332.379 412.696,329.468 417.999,321.549 C428.792,305.623 429.853,299.233 438.842,284.533 C449.432,256.423 435.109,239.584 436.677,233.735 C439.753,235.288 441.751,232.523 444.073,237.665 C443.854,233.355 445.379,216.335 450.643,203.187 C452.319,196.502 457.892,191.766 463.296,188.05 C463.815,187.777 464.876,187.079 465.654,186.498 C469.004,183.842 472.973,182.788 477.163,182.757 C481.116,182.757 484.705,183.407 487.087,184.555 C497.251,189.271 500.938,200.901 504.56,210.854 C506.681,218.182 507.777,222.558 506.791,230.19 C507.071,234.12 522.127,235.029 521.097,233.335 C518.953,228.8 523.744,219.597 525.34,215.583 C530.916,201.213 541.457,191.754 557.605,191.171 C565.413,193.29 571.244,200.696 574.058,202.467 C577.692,210.265 579.166,217.569 579.423,226.128 C579.421,230.478 578.733,237.041 577.988,239.827 C575.162,247.437 579.132,252.369 579.987,258.75 C580.832,259.855 581.58,260.549 583.058,260.744 C592.582,253.83 585.275,267.827 585.274,270.926 C580.317,282.58 578.606,292.879 579.812,305.484 C581.325,314.702 584.818,323.32 588.101,331.992 C590.207,337.784 593.497,343.024 595.165,348.972 C595.344,349.75 595.528,350.509 595.576,350.658 C595.683,350.994 597.895,348.848 599.942,346.425 L599.942,346.425 L599.942,346.425 z M496.034,352.383 C499.335,349.289 499.154,346.264 497.546,344.233 C496.203,342.538 493.391,340.673 490.736,342.827 C485.749,345.538 492.072,354.435 496.034,352.383 z M534.4,291.305 C545.345,283.08 549.641,279.925 558.177,275.174 C560.992,273.607 564.029,270.938 567.509,268.528 C569.707,266.776 576.145,262.568 578.5,261.108 C574.342,259.179 553.583,248.314 543.793,244.66 C532.541,240.321 524.241,235.257 511.991,237.386 C496.597,232.198 476.797,233.826 463.006,242.049 C457.208,243.72 451.892,243.515 447.426,243.21 C450.452,246.304 454.963,254.415 458.137,257.657 C466.926,267.104 473.231,278.406 479.159,289.758 C485.504,297 498.338,306.437 508.671,303.819 L508.671,303.819 L508.671,303.819 L508.671,303.819 L508.671,303.819 L508.671,303.819 L508.671,303.819 L508.671,303.819 L508.671,303.819 L508.671,303.819 L508.671,303.819 L508.671,303.819 L508.671,303.819 L508.671,303.819 L508.671,303.819 L508.671,303.819 L509.818,303.361 C523.2,302.009 525.289,298.341 534.4,291.305 z M572.703,253.724 C572.474,245.604 574.631,237.887 575.031,225.865 C574.531,213.312 572.265,189.493 542.402,202.225 C534.112,205.76 528,220.905 526.67,230.212 C526.12,232.624 526.885,235.365 528.412,235.575 C530.676,235.885 533.984,238.062 536.204,238.624 C535.45,230.794 535.393,220.675 544.353,215.736 C550.237,214.581 555.578,213.958 560.629,218.765 C569.248,228.665 560.427,241.889 559.875,244.963 C561.163,248.54 572.74,255.065 572.703,253.724 z M466.025,236.514 C462.532,231.097 456.304,218.447 466.098,210.632 C472.182,205.779 476.119,207.107 479.393,208.311 C491.75,212.857 491.379,226.518 490.565,230.697 C492.136,231.363 497.32,231.224 499.042,231.436 C504.464,227.013 497.92,209.186 495.561,203.538 C490.657,192.656 482.615,187.681 471.054,192.372 C459.121,199.371 456.904,209.336 453.559,221.998 C452.075,227.737 450.843,233.564 448.256,238.92 C450.996,242.798 462.462,237.882 466.025,236.514 z M448.108,238.978 C448.108,238.875 448.071,238.79 448.025,238.79 C447.979,238.79 447.889,238.875 447.825,238.978 C447.827,239.274 447.98,239.146 448.108,238.978 z" fill="#000000" id="path2994"/>
    <g id="path3885">
      <path d="M530.932,340.244 C551.077,346.187 570.106,335.643 588.676,340.244 L590.623,346.732 C573.581,350.258 552.016,351.54 531.581,349.976 C524.887,347.812 527.405,344.112 530.932,340.244 z" fill="#000080"/>
      <path d="M530.932,340.244 C551.077,346.187 570.106,335.643 588.676,340.244 L590.623,346.732 C573.581,350.258 552.016,351.54 531.581,349.976 C524.887,347.812 527.405,344.112 530.932,340.244 z" fill-opacity="0" stroke="#000000" stroke-width="0.491" stroke-linecap="round"/>
    </g>
    <g id="path3887">
      <path d="M457.616,340.244 C463.27,345.883 461.187,347.653 460.211,349.976 C446.117,347.407 436.597,346.36 416.092,342.84 C412.822,339.865 409.615,340.11 414.795,333.756 C435.183,335.054 443.436,338.947 457.616,340.244 z" fill="#000080"/>
      <path d="M457.616,340.244 C463.27,345.883 461.187,347.653 460.211,349.976 C446.117,347.407 436.597,346.36 416.092,342.84 C412.822,339.865 409.615,340.11 414.795,333.756 C435.183,335.054 443.436,338.947 457.616,340.244 z" fill-opacity="0" stroke="#000000" stroke-width="0.427" stroke-linecap="round" stroke-linejoin="round"/>
    </g>
    <path d="M489.864,243.657 C490.08,244.355 490.296,245.054 490.512,245.752 C490.555,245.892 490.779,246.129 490.641,246.171 C490.504,246.214 490.649,245.71 490.512,245.752 C490.317,245.812 490.376,246.156 490.229,246.299 C490.126,246.399 489.954,246.383 489.817,246.426" fill-opacity="0" stroke="#743F15" stroke-width="0.261" stroke-linecap="round" id="path3901" opacity="0.84"/>
    <path d="M527.129,250.093 C527.206,250.82 527.282,251.547 527.359,252.274 C527.374,252.419 527.548,252.695 527.405,252.71 C527.262,252.725 527.502,252.259 527.359,252.274 C527.156,252.295 527.147,252.644 526.976,252.755 C526.854,252.834 526.69,252.785 526.547,252.8" fill-opacity="0" stroke="#743F15" stroke-width="0.261" stroke-linecap="round" id="path3901-3" opacity="0.84"/>
    <path d="M510.257,245.26 C503.599,259.481 503.403,268.994 502.458,287.009" fill-opacity="0" stroke="#743F15" stroke-width="0.263" stroke-linecap="round" id="path3959" opacity="0.84"/>
    <path d="M471.845,215.79 C471.552,217.718 470.052,219.337 468.475,219.427 C466.899,219.516 465.829,218.044 466.073,216.119 C466.316,214.194 467.782,212.528 469.367,212.377 C470.951,212.226 472.067,213.646 471.874,215.566" fill="#FFFFFF" id="path3996"/>
    <path d="M547.086,223.135 C546.789,225.063 545.286,226.679 543.709,226.766 C542.133,226.853 541.066,225.379 541.312,223.454 C541.559,221.53 543.028,219.866 544.612,219.718 C546.197,219.57 547.311,220.991 547.114,222.911" fill="#FFFFFF" id="path3996-2"/>
    <path d="M482.606,408.656 C480.661,417.992 484.54,429.138 480.01,437.853 C474.21,439.354 467.478,437.035 461.479,439.191 C454.988,439.426 448.849,444.498 450.449,451.518 C449.937,459.471 453.727,469.152 463.02,469.158 C468.352,470.755 476.688,467.2 480.132,472.686 C482.486,479.818 478.456,488.984 483.417,494.948 C491.403,495.78 501.64,498.186 508.234,492.312 C512.927,485.032 508.68,475.042 512.329,467.698 C521.417,466.559 532.276,467.784 540.107,462.427 C542.982,455.668 541.691,447.208 539.742,440.367 C531.209,436.401 520.492,437.948 512.086,434.163 C509.371,426.645 513.105,416.708 507.788,410.238 C500.272,406.887 490.396,407.812 482.606,408.656 z" fill="#AA0000" id="path3087"/>
    <path d="M525.427,333.11 C516.754,336.92 507.082,342.659 503.084,351.601 C503.191,359.133 513.504,359.444 518.98,360.725 C522.962,361.325 534.8,366.346 530.861,355.981 C528.231,351.361 521.921,346.831 526.887,341.18 C528.068,338.778 530.533,332.691 525.427,333.11 z" fill="#2E56D7" id="path3879"/>
    <path d="M615.531,332.177 C610.471,334.892 609.257,341.825 604.826,345.478 C599.82,353.203 589.96,359.227 588.686,368.795 C592.475,374.904 601.598,369.378 605.718,366.159 C612.84,359.3 622.034,351.996 623.763,341.788 C624.242,336.91 620.366,332.263 615.531,332.177 z" fill="#C87137" id="path3095"/>
    <path d="M441.446,366.483 C434.83,366.994 430.749,372.47 429.884,378.608 C417.261,411.39 406.885,447.879 416.694,482.827 C419.856,493.056 422.709,504.644 430.457,512.345 C435.982,514.955 435.792,506.634 433.58,503.91 C420.283,461.208 426.279,413.918 444.541,373.676 C447.296,370.118 447.135,365.419 441.446,366.483 z" fill="#6C6C6C" id="path3089"/>
    <path d="M557.989,370.376 C551.419,372.066 558.354,379.416 559.165,383.109 C568.823,411.143 566.96,442.102 564.072,471.348 C562.272,485.731 556.411,499.497 553.934,513.642 C557.949,518.209 562.323,510.15 564.437,507.113 C578.256,479.644 578.518,447.588 577.332,417.456 C576.237,401.953 570.351,387.069 564.437,372.89 C563.219,370.49 560.448,369.976 557.989,370.376 z" fill="#6C6C6C" id="path3091"/>
    <path d="M492.297,341.017 C486.176,341.439 486.406,348.875 490.716,351.682 C496.343,359.836 504.661,344.874 496.839,341.707 C495.464,340.971 493.825,340.789 492.297,341.017 z" fill="#000080" id="path3883"/>
    <path d="M462.857,331.853 C455.137,334.264 462.12,342.67 464.844,346.451 C465.273,350.207 457.822,356.819 464.642,357.197 C470.817,356.265 481.416,359.528 484.592,352.412 C484.161,341.94 473.144,332.07 462.857,331.853 z" fill="#2E56D7" id="path3881"/>
    <path d="M378.461,432.376 L355.104,470.656 C352.544,492.138 347.459,508.568 347.967,536.186 C347.102,552.622 345.372,567.329 342.776,580.305 C340.128,593.823 339.748,598.903 333.693,611.448 C327.537,621.297 322.048,635.056 316.175,644.537 L305.145,663.353 L296.711,671.788 L306.443,656.216 L323.312,612.097 C329.044,600.42 335.375,588.676 336.288,570.573 C336.295,556.501 335.583,543.867 338.883,523.209 C340.265,506.298 337.768,491.326 345.372,471.304 C359.645,442.332 386.544,418.702 378.461,432.376 z" fill="#FFF6F3" id="path4176"/>
    <path d="M622.415,451.84 C624.409,457.423 626.386,462.994 633.444,471.953 C629.625,492.497 627.964,513.031 631.498,533.59 L641.23,579.656 C643.951,589.263 642.132,595.623 647.718,606.258 C649.402,620.099 648.968,627.452 654.855,639.996 C659.236,653.16 666.911,664.678 678.213,674.383 L684.701,676.978 L673.022,661.407 C669.695,653.371 664.34,645.743 659.397,632.859 C654.25,611.816 653.866,597.043 650.314,579.007 C647.449,560.337 643.198,562.469 641.879,520.614 C639.649,507.774 640.786,499.926 643.177,473.251 C636.992,463.169 630.322,455.032 622.415,451.84 z" fill="#FFF6F3" id="path4178"/>
    <path d="M507.575,348.03 C518.163,340.244 523.847,342.42 524.064,342.42" fill-opacity="0" stroke="#2231C3" stroke-width="0.125" id="path4192"/>
    <path d="M507.586,352.648 C512.822,351.245 519.235,350.612 523.862,352.389" fill-opacity="0" stroke="#2231C3" stroke-width="0.125" id="path4196"/>
    <path d="M464.445,339.176 C469.202,340.474 475.51,341.598 477.729,345.435" fill-opacity="0" stroke="#2231C3" stroke-width="0.125" id="path4198"/>
    <path d="M467.08,350.776 C470.523,348.112 475.368,348.533 479.676,349.328" fill-opacity="0" stroke="#2231C3" stroke-width="0.125" id="path4200"/>
  </g>
</svg>
